<svg xmlns="http://www.w3.org/2000/svg" viewBox="0 0 32 32" enable-background="new 0 0 32 32">
    <path style="text-indent:0;text-align:start;line-height:normal;text-transform:none;block-progression:tb;-inkscape-font-specification:Bitstream Vera Sans" d="M 4 5 L 4 6 L 4 26 L 4 27 L 5 27 L 16.59375 27 C 17.78836 29.919124 20.659415 32 24 32 C 28.406433 32 32 28.406433 32 24 C 32 21.050941 30.385631 18.481052 28 17.09375 L 28 6 L 28 5 L 27 5 L 5 5 L 4 5 z M 6 7 L 26 7 L 26 16.28125 C 25.356318 16.113347 24.695043 16 24 16 L 24 15 L 12 15 L 12 17 L 20.125 17 C 19.210912 17.508008 18.432173 18.189426 17.78125 19 L 12 19 L 12 21 L 16.59375 21 C 16.212597 21.931376 16 22.934152 16 24 C 16 24.341567 16.02061 24.669496 16.0625 25 L 6 25 L 6 7 z M 8 11 L 8 13 L 10 13 L 10 11 L 8 11 z M 12 11 L 12 13 L 24 13 L 24 11 L 12 11 z M 8 15 L 8 17 L 10 17 L 10 15 L 8 15 z M 24 18 C 27.325553 18 30 20.674447 30 24 C 30 27.325553 27.325553 30 24 30 C 20.674447 30 18 27.325553 18 24 C 18 20.674447 20.674447 18 24 18 z M 8 19 L 8 21 L 10 21 L 10 19 L 8 19 z M 23 20 L 23 23 L 20 23 L 20 25 L 23 25 L 23 28 L 25 28 L 25 25 L 28 25 L 28 23 L 25 23 L 25 20 L 23 20 z"/>
</svg>