<svg xmlns="http://www.w3.org/2000/svg" viewBox="0 0 32 32" enable-background="new 0 0 32 32">
    <path style="text-indent:0;text-align:start;line-height:normal;text-transform:none;block-progression:tb;-inkscape-font-specification:Bitstream Vera Sans" d="M 6 3 L 6 4 L 6 28 L 6 29 L 7 29 L 17.78125 29 C 19.2495 30.828363 21.481724 32 24 32 C 28.406433 32 32 28.406433 32 24 C 32 20.28861 29.437134 17.177817 26 16.28125 L 26 10 L 26 9.59375 L 25.71875 9.28125 L 19.71875 3.28125 L 19.40625 3 L 19 3 L 7 3 L 6 3 z M 8 5 L 18 5 L 18 10 L 18 11 L 19 11 L 24 11 L 24 16 C 19.593567 16 16 19.593567 16 24 C 16 25.065848 16.212597 26.068624 16.59375 27 L 8 27 L 8 5 z M 20 6.4375 L 22.5625 9 L 20 9 L 20 6.4375 z M 24 18 C 27.325553 18 30 20.674447 30 24 C 30 27.325553 27.325553 30 24 30 C 20.674447 30 18 27.325553 18 24 C 18 20.674447 20.674447 18 24 18 z M 23 20 L 23 23 L 20 23 L 20 25 L 23 25 L 23 28 L 25 28 L 25 25 L 28 25 L 28 23 L 25 23 L 25 20 L 23 20 z" color="#000" overflow="visible" enable-background="accumulate" font-family="Bitstream Vera Sans"/>
</svg>