<svg xmlns="http://www.w3.org/2000/svg" viewBox="0 0 32 32" enable-background="new 0 0 32 32">
    <path style="text-indent:0;text-align:start;line-height:normal;text-transform:none;block-progression:tb;-inkscape-font-specification:Bitstream Vera Sans" d="M 6 4 L 6 5 L 6 23 L 6 24 L 7 24 L 10 24 L 10 27 L 10 28 L 11 28 L 25 28 L 26 28 L 26 27 L 26 9 L 26 8 L 25 8 L 22 8 L 22 5 L 22 4 L 21 4 L 7 4 L 6 4 z M 8 6 L 20 6 L 20 22 L 8 22 L 8 6 z M 13 8 L 13 16 L 15 16 L 15 8 L 13 8 z M 22 10 L 24 10 L 24 26 L 12 26 L 12 24 L 21 24 L 22 24 L 22 23 L 22 10 z M 13 18 L 13 20 L 15 20 L 15 18 L 13 18 z" color="#000" overflow="visible" enable-background="accumulate" font-family="Bitstream Vera Sans"/>
</svg>