<svg xmlns="http://www.w3.org/2000/svg" viewBox="0 0 32 32" enable-background="new 0 0 32 32">
    <path style="text-indent:0;text-align:start;line-height:normal;text-transform:none;block-progression:tb;-inkscape-font-specification:Bitstream Vera Sans" d="M 16 4 C 10.566692 4 6.219977 8.3244002 6.0625 13.71875 C 4.8758343 14.412049 4 15.566656 4 17 C 4 18.594498 5.0278263 19.807533 6.375 20.46875 C 7.5100582 24.735 11.354072 28 16 28 C 20.645928 28 24.489942 24.735 25.625 20.46875 C 26.972174 19.807533 28 18.594498 28 17 C 28 15.566656 27.124166 14.412049 25.9375 13.71875 C 25.780023 8.3244002 21.433308 4 16 4 z M 16 6 C 20.466667 6 24 9.5333333 24 14 L 24 14.1875 L 24 14.90625 L 24.6875 15.15625 C 25.492215 15.424488 26 16.110256 26 17 C 26 17.971429 25.431465 18.650895 24.5 18.9375 L 23.9375 19.125 L 23.8125 19.6875 C 23.013572 23.23829 19.81938 26 16 26 C 12.18062 26 8.9864278 23.23829 8.1875 19.6875 L 8.0625 19.125 L 7.5 18.9375 C 6.5685346 18.650895 6 17.971429 6 17 C 6 16.110256 6.5077847 15.424488 7.3125 15.15625 L 8 14.90625 L 8 14.1875 L 8 14 C 8 9.5333333 11.533333 6 16 6 z M 11 16 L 11 18 L 21 18 L 21 16 L 11 16 z" color="#000" overflow="visible" enable-background="accumulate" font-family="Bitstream Vera Sans"/>
</svg>