<svg xmlns="http://www.w3.org/2000/svg" viewBox="0 0 32 32" enable-background="new 0 0 32 32">
    <path style="text-indent:0;text-align:start;line-height:normal;text-transform:none;block-progression:tb;-inkscape-font-specification:Bitstream Vera Sans" d="M 4.53125 5.15625 L 3.46875 6.84375 L 10.65625 11.34375 L 11.375 11.78125 L 11.9375 11.1875 L 12.9375 10.125 L 18 13.90625 L 18.6875 14.40625 L 19.3125 13.8125 L 20.1875 12.9375 L 25.0625 16.84375 L 22.9375 17 L 23.0625 19 L 27.75 18.6875 L 28.8125 18.625 L 28.6875 17.5625 L 28.09375 12.875 L 26.09375 13.125 L 26.375 15.34375 L 20.71875 10.8125 L 20.03125 10.25 L 19.40625 10.90625 L 18.53125 11.78125 L 13.40625 8 L 12.6875 7.46875 L 12.0625 8.125 L 11.03125 9.21875 L 4.53125 5.15625 z M 3 12 L 3 26 L 5 26 L 5 12 L 3 12 z M 7 14 L 7 26 L 9 26 L 9 14 L 7 14 z M 11 16 L 11 26 L 13 26 L 13 16 L 11 16 z M 15 18 L 15 26 L 17 26 L 17 18 L 15 18 z M 19 20 L 19 26 L 21 26 L 21 20 L 19 20 z M 23 22 L 23 26 L 25 26 L 25 22 L 23 22 z M 27 24 L 27 26 L 29 26 L 29 24 L 27 24 z"/>
</svg>