<svg xmlns="http://www.w3.org/2000/svg" viewBox="0 0 32 32" enable-background="new 0 0 32 32">
    <path style="text-indent:0;text-align:start;line-height:normal;text-transform:none;block-progression:tb;-inkscape-font-specification:Bitstream Vera Sans" d="M 14 3 C 13.477778 3 12.939531 3.1854695 12.5625 3.5625 C 12.185469 3.9395305 12 4.4777778 12 5 L 12 6 L 4 6 L 3 6 L 3 7 L 3 11 L 3 14 L 3 25 L 3 26 L 4 26 L 28 26 L 29 26 L 29 25 L 29 7 L 29 6 L 28 6 L 20 6 L 20 5 C 20 4.4777778 19.814531 3.9395305 19.4375 3.5625 C 19.060469 3.1854695 18.522222 3 18 3 L 14 3 z M 14 5 L 18 5 L 18 6 L 14 6 L 14 5 z M 5 8 L 27 8 L 27 14 C 27 15.190196 26.190196 16 25 16 L 7 16 C 5.8098039 16 5 15.190196 5 14 L 5 11 L 5 8 z M 9 12 L 9 15 L 11 15 L 11 12 L 9 12 z M 21 12 L 21 15 L 23 15 L 23 12 L 21 12 z M 5 17.4375 C 5.5890897 17.778943 6.2698498 18 7 18 L 25 18 C 25.73015 18 26.41091 17.778943 27 17.4375 L 27 24 L 5 24 L 5 17.4375 z" color="#000" overflow="visible" enable-background="accumulate" font-family="Bitstream Vera Sans"/>
</svg>