<svg xmlns="http://www.w3.org/2000/svg" viewBox="0 0 32 32" enable-background="new 0 0 32 32">
    <path style="text-indent:0;text-align:start;line-height:normal;text-transform:none;block-progression:tb;-inkscape-font-specification:Bitstream Vera Sans" d="M 24 4 L 24 6 L 23 6 L 22 6 L 22 7 L 22 12 L 22 13 L 23 13 L 24 13 L 24 15 L 26 15 L 26 13 L 27 13 L 28 13 L 28 12 L 28 7 L 28 6 L 27 6 L 26 6 L 26 4 L 24 4 z M 11 6 L 11 8 L 10 8 L 9 8 L 9 9 L 9 14 L 9 15 L 10 15 L 11 15 L 11 17 L 13 17 L 13 15 L 14 15 L 15 15 L 15 14 L 15 9 L 15 8 L 14 8 L 13 8 L 13 6 L 11 6 z M 24 8 L 26 8 L 26 11 L 24 11 L 24 8 z M 11 10 L 13 10 L 13 13 L 11 13 L 11 10 z M 18 15 L 18 17 L 17 17 L 16 17 L 16 18 L 16 23 L 16 24 L 17 24 L 18 24 L 18 26 L 20 26 L 20 24 L 21 24 L 22 24 L 22 23 L 22 18 L 22 17 L 21 17 L 20 17 L 20 15 L 18 15 z M 6 17 L 6 19 L 5 19 L 4 19 L 4 20 L 4 25 L 4 26 L 5 26 L 6 26 L 6 28 L 8 28 L 8 26 L 9 26 L 10 26 L 10 25 L 10 20 L 10 19 L 9 19 L 8 19 L 8 17 L 6 17 z M 18 19 L 20 19 L 20 22 L 18 22 L 18 19 z M 6 21 L 8 21 L 8 24 L 6 24 L 6 21 z"/>
</svg>