<svg xmlns="http://www.w3.org/2000/svg" viewBox="0 0 32 32" enable-background="new 0 0 32 32">
    <path style="text-indent:0;text-align:start;line-height:normal;text-transform:none;block-progression:tb;-inkscape-font-specification:Bitstream Vera Sans" d="M 6 3 L 6 4 L 6 28 L 6 29 L 7 29 L 17.78125 29 C 19.2495 30.828363 21.481724 32 24 32 C 28.406433 32 32 28.406433 32 24 C 32 20.28861 29.437134 17.177817 26 16.28125 L 26 4 L 26 3 L 25 3 L 7 3 L 6 3 z M 8 5 L 24 5 L 24 16 C 22.039897 16 20.237413 16.728874 18.84375 17.90625 C 18.937734 17.617049 19 17.318721 19 17 C 19 15.707982 18.155745 14.605718 17 14.1875 L 17 12 L 15 12 L 15 14.1875 C 13.844255 14.605718 13 15.707982 13 17 C 13 18.64501 14.35499 20 16 20 C 16.460183 20 16.889773 19.876261 17.28125 19.6875 C 16.478527 20.933914 16 22.412601 16 24 C 16 25.065848 16.212597 26.068624 16.59375 27 L 8 27 L 8 5 z M 15 6 L 15 8 L 17 8 L 17 6 L 15 6 z M 15 9 L 15 11 L 17 11 L 17 9 L 15 9 z M 16 16 C 16.564128 16 17 16.435872 17 17 C 17 17.564128 16.564128 18 16 18 C 15.435872 18 15 17.564128 15 17 C 15 16.435872 15.435872 16 16 16 z M 24 18 C 27.325553 18 30 20.674447 30 24 C 30 27.325553 27.325553 30 24 30 C 20.674447 30 18 27.325553 18 24 C 18 20.674447 20.674447 18 24 18 z M 23 20 L 23 23 L 20 23 L 20 25 L 23 25 L 23 28 L 25 28 L 25 25 L 28 25 L 28 23 L 25 23 L 25 20 L 23 20 z"/>
</svg>