<svg xmlns="http://www.w3.org/2000/svg" viewBox="0 0 32 32" enable-background="new 0 0 32 32">
    <path style="text-indent:0;text-align:start;line-height:normal;text-transform:none;block-progression:tb;-inkscape-font-specification:Bitstream Vera Sans" d="M 16 3 C 8.8 3 3 8.8 3 16 C 3 19.021021 4.0497686 21.811836 5.75 24 L 3 24 L 3 26 L 8 26 L 9 26 L 9 25 L 9 20 L 7 20 L 7 22.28125 C 5.721298 20.487726 5 18.34384 5 16 C 5 9.9 9.9 5 16 5 C 17.8 5 19.5 5.3875 21 6.1875 L 21 4 C 19.5 3.4 17.8 3 16 3 z M 23 6 L 23 7 L 23 12 L 25 12 L 25 9.71875 C 26.278702 11.512274 27 13.65616 27 16 C 27 22.1 22.1 27 16 27 C 14.2 27 12.5 26.6125 11 25.8125 L 11 28 C 12.5 28.6 14.2 29 16 29 C 23.2 29 29 23.2 29 16 C 29 12.978979 27.950231 10.188164 26.25 8 L 29 8 L 29 6 L 24 6 L 23 6 z M 15 8 L 15 10.03125 C 13.317145 10.281991 12 11.750634 12 13.5 C 12 15.42381 13.57619 17 15.5 17 L 16.5 17 C 17.37619 17 18 17.62381 18 18.5 C 18 19.37619 17.37619 20 16.5 20 L 13 20 L 13 22 L 15 22 L 15 24 L 17 24 L 17 21.96875 C 18.682855 21.718009 20 20.249366 20 18.5 C 20 16.57619 18.42381 15 16.5 15 L 15.5 15 C 14.62381 15 14 14.37619 14 13.5 C 14 12.62381 14.62381 12 15.5 12 L 19 12 L 19 10 L 17 10 L 17 8 L 15 8 z" color="#000" overflow="visible" enable-background="accumulate" font-family="Bitstream Vera Sans"/>
</svg>