<svg xmlns="http://www.w3.org/2000/svg" viewBox="0 0 32 32" enable-background="new 0 0 32 32">
    <path style="text-indent:0;text-align:start;line-height:normal;text-transform:none;block-progression:tb;-inkscape-font-specification:Bitstream Vera Sans" d="M 10 5 C 6.1545455 5 3 8.1545455 3 12 C 3 13.333333 3.5993577 14.477162 4.15625 15.3125 C 4.7131423 16.147838 5.28125 16.71875 5.28125 16.71875 L 15.28125 26.71875 L 16 27.40625 L 16.71875 26.71875 L 26.71875 16.71875 C 26.71875 16.71875 27.286858 16.147838 27.84375 15.3125 C 28.400642 14.477162 29 13.333333 29 12 C 29 8.1545455 25.845455 5 22 5 C 18.858437 5 16.838759 6.8440486 16 7.6875 C 15.161241 6.8440486 13.141563 5 10 5 z M 10 7 C 11.919134 7 13.751324 8.3495769 14.65625 9.125 L 12.1875 12.40625 L 11.375 13.5 L 12.6875 13.9375 L 17.34375 15.5 L 14.21875 19.375 L 15.78125 20.625 L 19.78125 15.625 L 20.6875 14.5 L 19.3125 14.0625 L 14.625 12.5 L 16.75 9.65625 C 16.75 9.65625 16.805629 9.6007486 16.8125 9.59375 C 16.991399 9.4115263 19.4057 7 22 7 C 24.754545 7 27 9.2454545 27 12 C 27 12.666667 26.599358 13.522838 26.15625 14.1875 C 25.713142 14.852162 25.28125 15.28125 25.28125 15.28125 L 16 24.5625 L 6.71875 15.28125 C 6.71875 15.28125 6.2868577 14.852162 5.84375 14.1875 C 5.4006423 13.522838 5 12.666667 5 12 C 5 9.2454545 7.2454545 7 10 7 z" color="#000" overflow="visible" enable-background="accumulate" font-family="Bitstream Vera Sans"/>
</svg>