<svg xmlns="http://www.w3.org/2000/svg" viewBox="0 0 32 32" enable-background="new 0 0 32 32">
    <path style="text-indent:0;text-align:start;line-height:normal;text-transform:none;block-progression:tb;-inkscape-font-specification:Bitstream Vera Sans" d="M 18 2.125 C 17.890956 2.1886088 17.160253 2.5250921 16.28125 2.84375 C 15.402247 3.1624079 14.319944 3.537088 13.25 3.90625 C 12.180056 4.275412 11.098853 4.6193801 10.25 4.9375 C 9.8255737 5.09656 9.4625969 5.240501 9.15625 5.375 C 8.8499031 5.509499 8.6508389 5.5805309 8.34375 5.84375 C 7.9796802 6.1558098 7.7307031 6.5038835 7.34375 7.03125 C 6.9567969 7.5586165 6.512544 8.2113726 6.09375 8.875 C 5.674956 9.5386274 5.2749158 10.229727 4.96875 10.84375 C 4.6625842 11.457773 4.40625 11.879356 4.40625 12.59375 C 4.40625 12.935417 4.452395 12.970792 4.5 13.15625 C 4.547605 13.341708 4.6066083 13.583916 4.6875 13.84375 C 4.8492834 14.363418 5.0682641 15.019642 5.34375 15.75 C 5.8363948 17.056082 6.4744675 18.543259 7.1875 19.78125 C 6.4706603 20.826647 6 22.083823 6 23.5 C 6 27.055556 8.9444444 30 12.5 30 C 16.055556 30 19 27.055556 19 23.5 C 19 21.998419 18.442778 20.594266 17.53125 19.46875 C 17.885933 19.322627 18.263479 19.167604 18.71875 18.96875 C 19.86712 18.467163 21.260401 17.732353 22.53125 16.40625 A 1.0001 1.0001 0 0 0 22.53125 16.375 C 23.859891 14.925573 24.437804 12.949633 25.03125 11.21875 C 25.624696 9.487867 26.257191 8.068123 27.0625 7.53125 L 25.9375 5.875 C 24.342809 6.938127 23.731554 8.793383 23.125 10.5625 C 22.522104 12.320947 21.92522 14.045855 21.0625 15 C 20.033349 16.073897 18.93288 16.676587 17.90625 17.125 C 16.888641 17.569473 16.008743 17.783278 15.21875 18.40625 C 15.211747 18.411773 15.194488 18.40066 15.1875 18.40625 C 14.611318 18.867196 13.916523 19.549076 13.15625 20.09375 C 12.395977 20.638424 11.599123 21 11 21 C 10.445455 21 9.6422045 20.393954 9.59375 19.8125 C 9.549948 19.374475 9.692293 18.945254 10.0625 18.46875 C 10.432707 17.992246 11.014601 17.524326 11.625 17.125 C 12.845797 16.326348 14.15625 15.84375 14.15625 15.84375 A 1.0001 1.0001 0 0 0 14.59375 15.5 C 14.59375 15.5 15.152891 14.750671 15.78125 13.9375 C 16.409609 13.124329 17.225993 12.163434 17.34375 12.0625 A 1.0001 1.0001 0 0 0 16.4375 10.34375 C 16.4375 10.34375 15.765677 10.518833 14.96875 10.5625 C 14.171823 10.60617 13.380652 10.421083 13.09375 10.15625 A 1.0001 1.0001 0 0 0 11.5 10.4375 C 11.5 10.4375 10.441943 12.179568 9.28125 12.4375 A 1.0001 1.0001 0 0 0 8.6875 13.96875 C 8.6875 13.96875 9.0451487 14.441041 9.21875 15.65625 A 1.0001 1.0001 0 0 0 9.5 16.21875 C 9.5 16.21875 9.546293 16.26396 9.5625 16.28125 C 9.1927853 16.592204 8.8045573 16.857996 8.5 17.25 C 8.4243482 17.347374 8.3510608 17.458281 8.28125 17.5625 C 7.8861128 16.74886 7.5239136 15.871538 7.21875 15.0625 C 6.9567359 14.367858 6.7413416 13.724082 6.59375 13.25 C 6.5199542 13.012959 6.4723165 12.823136 6.4375 12.6875 C 6.4285606 12.652675 6.4108387 12.628475 6.40625 12.59375 C 6.40625 12.553472 6.4062539 12.580594 6.40625 12.5625 C 6.4184182 12.623287 6.5100004 12.200076 6.75 11.71875 C 7.0094592 11.198398 7.387544 10.561373 7.78125 9.9375 C 8.174956 9.3136274 8.5838281 8.7007585 8.9375 8.21875 C 9.2774345 7.7554638 9.60977 7.3940599 9.625 7.375 C 9.6231329 7.3739535 9.6494698 7.3820856 9.65625 7.375 C 9.7198924 7.3432051 9.844775 7.27318 9.96875 7.21875 C 10.2167 7.1098897 10.563489 6.9643775 10.96875 6.8125 C 11.779272 6.5087449 12.807444 6.149588 13.875 5.78125 C 14.942556 5.412912 16.032128 5.0469671 16.9375 4.71875 C 17.842872 4.3905329 18.509044 4.1613912 19 3.875 L 18 2.125 z M 12.75 12.15625 C 13.29073 12.371809 13.811374 12.519928 14.34375 12.53125 C 14.28931 12.60193 14.242274 12.647866 14.1875 12.71875 C 13.614076 13.460828 13.231357 13.98046 13.125 14.125 C 12.914595 14.20444 12.107821 14.621557 11.1875 15.125 C 11.12415 15.04911 11.10729 15.017242 11.0625 14.96875 C 10.929379 14.403874 10.867433 14.257352 10.71875 13.9375 C 11.812601 13.377863 12.370731 12.746478 12.75 12.15625 z M 15.8125 20.5 C 16.54499 21.296582 17 22.370055 17 23.5 C 17 25.944444 14.944444 28 12.5 28 C 10.055556 28 8 25.944444 8 23.5 C 8 22.883333 8.1261943 22.30284 8.34375 21.78125 C 8.9985956 22.551801 9.9920951 23 11 23 C 12.300877 23 13.397773 22.374076 14.3125 21.71875 C 14.901692 21.296643 15.392376 20.867205 15.8125 20.5 z" color="#000" overflow="visible" enable-background="accumulate" font-family="Bitstream Vera Sans"/>
</svg>