<svg xmlns="http://www.w3.org/2000/svg" viewBox="0 0 32 32" enable-background="new 0 0 32 32">
    <path style="text-indent:0;text-align:start;line-height:normal;text-transform:none;block-progression:tb;-inkscape-font-specification:Bitstream Vera Sans" d="M 5 4 L 5 5 L 5 8 L 5 9 L 6 9 L 6.09375 9 L 7.8125 25.3125 C 7.9663568 26.851068 9.2791667 28 10.8125 28 L 21.1875 28 C 22.720833 28 24.033643 26.851068 24.1875 25.3125 L 25.90625 9 L 26 9 L 27 9 L 27 8 L 27 5 L 27 4 L 26 4 L 6 4 L 5 4 z M 7 6 L 25 6 L 25 7 L 7 7 L 7 6 z M 8.125 9 L 23.875 9 L 22.21875 25.09375 C 22.172607 25.555182 21.654167 26 21.1875 26 L 10.8125 26 C 10.345833 26 9.8273932 25.555182 9.78125 25.09375 L 8.125 9 z" color="#000" overflow="visible" enable-background="accumulate" font-family="Bitstream Vera Sans"/>
</svg>