<svg xmlns="http://www.w3.org/2000/svg" viewBox="0 0 32 32" enable-background="new 0 0 32 32">
    <path style="text-indent:0;text-align:start;line-height:normal;text-transform:none;block-progression:tb;-inkscape-font-specification:Bitstream Vera Sans" d="M 16 4 C 13.373925 4 11.194882 5.7368277 10.375 8.125 C 8.7583726 8.3885474 7.5061372 9.5703763 7.15625 11.15625 C 5.3631768 11.551851 4 13.08767 4 15 C 4 17.209804 5.7901961 19 8 19 L 24 19 C 26.209804 19 28 17.209804 28 15 C 28 13.566656 27.124166 12.412049 25.9375 11.71875 C 25.781669 9.1098501 23.64557 7 21 7 C 19.938986 5.2602327 18.195483 4 16 4 z M 16 6 C 17.719048 6 19.034045 6.9359758 19.6875 8.40625 L 19.9375 9 L 20.59375 9 L 21 9 C 22.654545 9 24 10.345455 24 12 L 24 12.1875 L 24 12.90625 L 24.6875 13.15625 C 25.492215 13.424488 26 14.110256 26 15 C 26 16.190196 25.190196 17 24 17 L 19 17 L 19 14 C 19 12.354545 17.645455 11 16 11 C 14.354545 11 13 12.354545 13 14 L 13 17 L 8 17 C 6.8098039 17 6 16.190196 6 15 C 6 13.809804 6.8098039 13 8 13 L 9 13 L 9 12 C 9 10.809804 9.8098039 10 11 10 L 11.09375 10 L 11.90625 10 L 12.0625 9.21875 C 12.466638 7.3597141 14.072222 6 16 6 z M 16 13 C 16.554545 13 17 13.445455 17 14 L 17 17 L 15 17 L 15 14 C 15 13.445455 15.445455 13 16 13 z M 11 20 L 11 22 L 21 22 L 21 20 L 11 20 z M 9 23 L 9 25 L 23 25 L 23 23 L 9 23 z M 7 26 L 7 28 L 25 28 L 25 26 L 7 26 z" color="#000" overflow="visible" enable-background="accumulate" font-family="Bitstream Vera Sans"/>
</svg>