<svg xmlns="http://www.w3.org/2000/svg" viewBox="0 0 32 32" enable-background="new 0 0 32 32">
    <path style="text-indent:0;text-align:start;line-height:normal;text-transform:none;block-progression:tb;-inkscape-font-specification:Bitstream Vera Sans" d="M 0 6 L 0 7 L 0 24 L 0 25 L 1 25 L 13 25 C 14.190196 25 15 25.809804 15 27 L 17 27 C 17 25.809804 17.809804 25 19 25 L 31 25 L 32 25 L 32 24 L 32 7 L 32 6 L 31 6 L 19 6 C 17.806008 6 16.732793 6.5146836 16 7.34375 C 15.267207 6.5146836 14.193992 6 13 6 L 1 6 L 0 6 z M 2 8 L 13 8 C 14.190196 8 15 8.8098039 15 10 L 17 10 C 17 8.8098039 17.809804 8 19 8 L 30 8 L 30 23 L 19 23 C 17.806008 23 16.732793 23.514684 16 24.34375 C 15.267207 23.514684 14.193992 23 13 23 L 2 23 L 2 8 z M 4 12 L 4 13 L 4 19 L 4 20 L 5 20 L 9 20 L 9 18 L 6 18 L 6 17 L 8 17 L 8 15 L 6 15 L 6 14 L 9 14 L 9 12 L 5 12 L 4 12 z M 11 12 L 11 13 L 11 20 L 13 20 L 13 18 C 14.645455 18 16 16.645455 16 15 C 16 13.354545 14.645455 12 13 12 L 12 12 L 11 12 z M 17 12 L 17 17.5 C 17 18.883333 18.116667 20 19.5 20 C 20.883333 20 22 18.883333 22 17.5 L 22 12 L 20 12 L 20 17.5 C 20 17.716667 19.716667 18 19.5 18 C 19.283333 18 19 17.716667 19 17.5 L 19 12 L 17 12 z M 23 12 L 23 13 L 23 19 L 23 20 L 24 20 L 25.5 20 C 26.883333 20 28 18.883333 28 17.5 C 28 16.919095 27.737137 16.423912 27.40625 16 C 27.737137 15.576088 28 15.080905 28 14.5 C 28 13.116667 26.883333 12 25.5 12 L 24 12 L 23 12 z M 13 14 C 13.554545 14 14 14.445455 14 15 C 14 15.554545 13.554545 16 13 16 L 13 14 z M 25 14 L 25.5 14 C 25.716667 14 26 14.283333 26 14.5 C 26 14.716667 25.716667 15 25.5 15 L 25 15 L 25 14 z M 25 17 L 25.5 17 C 25.716667 17 26 17.283333 26 17.5 C 26 17.716667 25.716667 18 25.5 18 L 25 18 L 25 17 z" color="#000" overflow="visible" enable-background="accumulate" font-family="Bitstream Vera Sans"/>
</svg>