<svg xmlns="http://www.w3.org/2000/svg" viewBox="0 0 32 32" enable-background="new 0 0 32 32">
    <path style="text-indent:0;text-align:start;line-height:normal;text-transform:none;block-progression:tb;-inkscape-font-specification:Bitstream Vera Sans" d="M 5 4 L 5 5 L 5 8 L 5 9 L 6 9 L 6.09375 9 L 7.8125 25.3125 C 7.9663568 26.851068 9.2791667 28 10.8125 28 L 21.1875 28 C 22.720833 28 24.033643 26.851068 24.1875 25.3125 L 25.90625 9 L 26 9 L 27 9 L 27 8 L 27 5 L 27 4 L 26 4 L 6 4 L 5 4 z M 7 6 L 25 6 L 25 7 L 7 7 L 7 6 z M 8.125 9 L 23.875 9 L 23.28125 14.65625 L 21.71875 13.09375 L 21 12.375 L 20.28125 13.09375 L 19 14.375 L 16.71875 12.09375 L 16 11.375 L 15.28125 12.09375 L 12.5 14.875 L 11.71875 14.09375 L 11 13.375 L 10.28125 14.09375 L 8.8125 15.59375 L 8.125 9 z M 16 14.21875 L 18.28125 16.5 L 19 17.21875 L 19.71875 16.5 L 21 15.21875 L 23 17.21875 L 23.03125 17.1875 L 22.21875 25.09375 C 22.172607 25.555182 21.654167 26 21.1875 26 L 10.8125 26 C 10.345833 26 9.8273932 25.555182 9.78125 25.09375 L 9.0625 18.15625 L 11 16.21875 L 11.78125 17 L 12.5 17.71875 L 13.21875 17 L 16 14.21875 z M 16 18.59375 L 15.28125 19.28125 L 12.28125 22.28125 L 13.71875 23.71875 L 16 21.4375 L 17.28125 22.71875 L 18 23.40625 L 18.71875 22.71875 L 20.71875 20.71875 L 19.28125 19.28125 L 18 20.5625 L 16.71875 19.28125 L 16 18.59375 z" color="#000" overflow="visible" enable-background="accumulate" font-family="Bitstream Vera Sans"/>
</svg>