<svg xmlns="http://www.w3.org/2000/svg" viewBox="0 0 32 32" enable-background="new 0 0 32 32">
    <path style="text-indent:0;text-align:start;line-height:normal;text-transform:none;block-progression:tb;-inkscape-font-specification:Bitstream Vera Sans" d="M 16 4.875 L 15.53125 5.125 L 2.03125 12.125 L 0.3125 13 L 2 13.84375 L 2 22.28125 C 1.4031044 22.627293 1 23.260396 1 24 C 1 25.104569 1.8954305 26 3 26 C 4.1045695 26 5 25.104569 5 24 C 5 23.260396 4.5968956 22.627293 4 22.28125 L 4 14.875 L 6 15.90625 L 6 21 C 6 21.442069 6.2027928 21.838864 6.4375 22.09375 C 6.6722072 22.348636 6.9558934 22.501729 7.25 22.65625 C 7.8382132 22.965293 8.5393357 23.182352 9.40625 23.375 C 11.140079 23.760295 13.45467 24 16 24 C 18.54533 24 20.859921 23.760295 22.59375 23.375 C 23.460664 23.182352 24.161787 22.965293 24.75 22.65625 C 25.044107 22.501729 25.327793 22.348636 25.5625 22.09375 C 25.797207 21.838864 26 21.442069 26 21 L 26 15.90625 L 29.96875 13.875 L 31.6875 13 L 29.96875 12.125 L 16.46875 5.125 L 16 4.875 z M 16 7.125 L 27.3125 13 L 25.53125 13.90625 C 25.303506 13.668368 25.030318 13.491642 24.75 13.34375 C 24.16393 13.034548 23.459064 12.818032 22.59375 12.625 C 20.863122 12.238937 18.56 12 16 12 C 13.44 12 11.136878 12.238937 9.40625 12.625 C 8.5409362 12.818032 7.83607 13.034548 7.25 13.34375 C 6.9696816 13.491642 6.6964936 13.668368 6.46875 13.90625 L 4.6875 13 L 16 7.125 z M 16 14 C 18.44 14 20.636878 14.223563 22.15625 14.5625 C 22.915936 14.731968 23.52357 14.924827 23.84375 15.09375 C 23.946208 15.1478 23.960009 15.18777 24 15.21875 L 24 19.03125 C 23.580856 18.879156 23.125406 18.743146 22.59375 18.625 C 20.859921 18.239705 18.54533 18 16 18 C 13.45467 18 11.140079 18.239705 9.40625 18.625 C 8.8745937 18.743146 8.4191436 18.879156 8 19.03125 L 8 15.21875 C 8.039991 15.18777 8.053792 15.1478 8.15625 15.09375 C 8.47643 14.924827 9.0840638 14.731968 9.84375 14.5625 C 11.363122 14.223563 13.56 14 16 14 z M 16 20 C 18.425233 20 20.632719 20.223938 22.15625 20.5625 C 22.788186 20.70293 23.188849 20.850826 23.53125 21 C 23.188849 21.149174 22.788186 21.29707 22.15625 21.4375 C 20.632719 21.776062 18.425233 22 16 22 C 13.574767 22 11.367281 21.776062 9.84375 21.4375 C 9.2118143 21.29707 8.8111513 21.149174 8.46875 21 C 8.8111513 20.850826 9.2118143 20.70293 9.84375 20.5625 C 11.367281 20.223938 13.574767 20 16 20 z" color="#000" overflow="visible" enable-background="accumulate" font-family="Bitstream Vera Sans"/>
</svg>