<svg xmlns="http://www.w3.org/2000/svg" viewBox="0 0 32 32" enable-background="new 0 0 32 32">
    <path style="text-indent:0;text-align:start;line-height:normal;text-transform:none;block-progression:tb;-inkscape-font-specification:Bitstream Vera Sans" d="M 6 3 L 6 4 L 6 28 L 6 29 L 7 29 L 25 29 L 26 29 L 26 28 L 26 10 L 26 9.59375 L 25.71875 9.28125 L 19.71875 3.28125 L 19.40625 3 L 19 3 L 7 3 L 6 3 z M 8 5 L 18 5 L 18 10 L 18 11 L 19 11 L 24 11 L 24 27 L 8 27 L 8 5 z M 20 6.4375 L 22.5625 9 L 20 9 L 20 6.4375 z M 16.03125 12.625 L 15.34375 13.25 C 15.34375 13.25 14.284652 14.173523 13.25 15.5 C 12.215348 16.826477 11.09375 18.566667 11.09375 20.5 C 11.09375 21.857576 11.64961 23.061273 12.5625 23.84375 C 13.47539 24.626227 14.70303 25 16 25 C 17.312121 25 18.533261 24.572459 19.4375 23.78125 C 20.341739 22.990041 20.90625 21.819841 20.90625 20.5 C 20.90625 18.73 19.770311 17.092245 18.75 15.71875 C 17.729689 14.345255 16.71875 13.3125 16.71875 13.3125 L 16.03125 12.625 z M 15.96875 15.5 C 16.322467 15.888636 16.567192 16.113288 17.15625 16.90625 C 18.085939 18.157755 18.90625 19.77 18.90625 20.5 C 18.90625 21.280159 18.620761 21.847459 18.125 22.28125 C 17.985567 22.403254 17.832333 22.49832 17.65625 22.59375 C 17.672294 22.49802 17.6875 22.414959 17.6875 22.3125 C 17.6875 19.7125 16.40625 18.1875 16.40625 18.1875 C 16.40625 18.1875 16.5125 20.5 15.8125 20.5 C 15.3125 20.5 14.8125 19.8125 14.8125 19.8125 C 14.8125 19.8125 14.3125 20.9125 14.3125 22.3125 C 14.3125 22.425 14.320117 22.516992 14.34375 22.625 C 14.16879 22.533478 14.012349 22.430228 13.875 22.3125 C 13.38789 21.894977 13.09375 21.342424 13.09375 20.5 C 13.09375 19.433333 13.928402 17.923523 14.84375 16.75 C 15.414063 16.018829 15.620209 15.844533 15.96875 15.5 z" color="#000" overflow="visible" enable-background="accumulate" font-family="Bitstream Vera Sans"/>
</svg>