<svg xmlns="http://www.w3.org/2000/svg" viewBox="0 0 32 32" enable-background="new 0 0 32 32">
    <path style="text-indent:0;text-align:start;line-height:normal;text-transform:none;block-progression:tb;-inkscape-font-specification:Bitstream Vera Sans" d="M 9.59375 3 L 9.28125 3.28125 L 7.5625 5 L 7 5 C 5.3545455 5 4 6.3545455 4 8 L 4 10 L 4 11 L 5 11 L 6.09375 11 L 8 28.125 L 8.09375 29 L 9 29 L 23 29 L 23.90625 29 L 24 28.125 L 25.90625 11 L 27 11 L 28 11 L 28 10 L 28 8 C 28 6.3545455 26.645455 5 25 5 L 24.4375 5 L 22.71875 3.28125 L 22.40625 3 L 22 3 L 10 3 L 9.59375 3 z M 10.4375 5 L 21.5625 5 L 23.28125 6.71875 L 23.59375 7 L 24 7 L 25 7 C 25.554545 7 26 7.4454545 26 8 L 26 9 L 7 9 L 6 9 L 6 8 C 6 7.4454545 6.4454545 7 7 7 L 8 7 L 8.40625 7 L 8.71875 6.71875 L 10.4375 5 z M 8.125 11 L 23.875 11 L 22.09375 27 L 9.90625 27 L 8.125 11 z M 16 14 C 14.35499 14 13 15.35499 13 17 C 13 17.766865 13.300208 18.467081 13.78125 19 C 13.300208 19.532919 13 20.233135 13 21 C 13 22.64501 14.35499 24 16 24 C 17.64501 24 19 22.64501 19 21 C 19 20.233135 18.699792 19.532919 18.21875 19 C 18.699792 18.467081 19 17.766865 19 17 C 19 15.35499 17.64501 14 16 14 z M 16 16 C 16.564128 16 17 16.435872 17 17 C 17 17.564128 16.564128 18 16 18 C 15.435872 18 15 17.564128 15 17 C 15 16.435872 15.435872 16 16 16 z M 16 20 C 16.564128 20 17 20.435872 17 21 C 17 21.564128 16.564128 22 16 22 C 15.435872 22 15 21.564128 15 21 C 15 20.435872 15.435872 20 16 20 z" color="#000" overflow="visible" enable-background="accumulate" font-family="Bitstream Vera Sans"/>
</svg>