<svg xmlns="http://www.w3.org/2000/svg" viewBox="0 0 32 32" enable-background="new 0 0 32 32">
    <path style="text-indent:0;text-align:start;line-height:normal;text-transform:none;block-progression:tb;-inkscape-font-specification:Bitstream Vera Sans" d="M 8 5 L 8 6 L 4 6 L 3 6 L 3 7 L 3 10 L 3 11 L 3 12 L 3 27 L 3 28 L 4 28 L 28 28 L 29 28 L 29 27 L 29 11 L 29 10 L 29 7 L 29 6 L 28 6 L 24 6 L 24 5 L 22 5 L 22 6 L 10 6 L 10 5 L 8 5 z M 5 8 L 8 8 L 8 9 L 10 9 L 10 8 L 22 8 L 22 9 L 24 9 L 24 8 L 27 8 L 27 10 L 5 10 L 5 8 z M 5 12 L 27 12 L 27 26 L 5 26 L 5 12 z M 15 14 L 15 20 L 17 20 L 17 14 L 15 14 z M 15 22 L 15 24 L 17 24 L 17 22 L 15 22 z" color="#000" overflow="visible" enable-background="accumulate" font-family="Bitstream Vera Sans"/>
</svg>