<svg xmlns="http://www.w3.org/2000/svg" viewBox="0 0 32 32" enable-background="new 0 0 32 32">
    <path style="text-indent:0;text-align:start;line-height:normal;text-transform:none;block-progression:tb;-inkscape-font-specification:Bitstream Vera Sans" d="M 4 4 L 4 5 L 4 27 L 4 28 L 5 28 L 27 28 L 28 28 L 28 27 L 28 5 L 28 4 L 27 4 L 5 4 L 4 4 z M 6 6 L 26 6 L 26 26 L 6 26 L 6 6 z M 15 8 L 15 12.15625 C 14.644106 12.247988 14.310378 12.384544 14 12.5625 L 10.21875 8.78125 L 8.78125 10.21875 L 12.5625 14 C 12.377809 14.310962 12.218808 14.640664 12.125 15 L 9 15 L 9 17 L 12 17 L 12 18.5625 L 8.28125 22.28125 L 9.71875 23.71875 L 13.4375 20 L 18.5625 20 L 20.78125 22.21875 L 22.21875 20.78125 L 20 18.5625 L 20 17 L 24 17 L 24 15 L 19.875 15 C 19.781192 14.640664 19.622191 14.310962 19.4375 14 L 21.71875 11.71875 L 20.28125 10.28125 L 18 12.5625 C 17.689622 12.384544 17.355894 12.247988 17 12.15625 L 17 8 L 15 8 z M 16 14 C 17.190196 14 18 14.809804 18 16 L 18 18 L 14 18 L 14 16 C 14 14.809804 14.809804 14 16 14 z"/>
</svg>