<svg xmlns="http://www.w3.org/2000/svg" viewBox="0 0 32 32" enable-background="new 0 0 32 32">
    <path style="text-indent:0;text-align:start;line-height:normal;text-transform:none;block-progression:tb;-inkscape-font-specification:Bitstream Vera Sans" d="M 16 1.59375 L 15.28125 2.3125 L 2.3125 15.28125 L 1.59375 16 L 2.3125 16.71875 L 15.28125 29.6875 L 16 30.40625 L 16.71875 29.6875 L 29.6875 16.71875 L 30.40625 16 L 29.6875 15.28125 L 16.71875 2.3125 L 16 1.59375 z M 16 4.40625 L 27.5625 16 L 16 27.5625 L 4.4375 16 L 16 4.40625 z M 11 14.5 C 10.171573 14.5 9.5 15.171573 9.5 16 C 9.5 16.828427 10.171573 17.5 11 17.5 C 11.828427 17.5 12.5 16.828427 12.5 16 C 12.5 15.171573 11.828427 14.5 11 14.5 z M 16 14.5 C 15.171573 14.5 14.5 15.171573 14.5 16 C 14.5 16.828427 15.171573 17.5 16 17.5 C 16.828427 17.5 17.5 16.828427 17.5 16 C 17.5 15.171573 16.828427 14.5 16 14.5 z M 21 14.5 C 20.171573 14.5 19.5 15.171573 19.5 16 C 19.5 16.828427 20.171573 17.5 21 17.5 C 21.828427 17.5 22.5 16.828427 22.5 16 C 22.5 15.171573 21.828427 14.5 21 14.5 z" color="#000" overflow="visible" enable-background="accumulate" font-family="Bitstream Vera Sans"/>
</svg>