<svg xmlns="http://www.w3.org/2000/svg" viewBox="0 0 32 32" enable-background="new 0 0 32 32">
    <path style="text-indent:0;text-align:start;line-height:normal;text-transform:none;block-progression:tb;-inkscape-font-specification:Bitstream Vera Sans" d="M 15 3 L 15 10.5625 L 11.71875 7.28125 L 10.28125 8.71875 L 14.5625 13 L 0 13 L 0 15 L 32 15 L 32 13 L 17.4375 13 L 21.71875 8.71875 L 20.28125 7.28125 L 17 10.5625 L 17 3 L 15 3 z M 0 17 L 0 19 L 14.5625 19 L 10.28125 23.28125 L 11.71875 24.71875 L 15 21.4375 L 15 29 L 17 29 L 17 21.4375 L 20.28125 24.71875 L 21.71875 23.28125 L 17.4375 19 L 32 19 L 32 17 L 0 17 z"/>
</svg>