<svg xmlns="http://www.w3.org/2000/svg" viewBox="0 0 32 32" enable-background="new 0 0 32 32">
    <path style="text-indent:0;text-align:start;line-height:normal;text-transform:none;block-progression:tb;-inkscape-font-specification:Bitstream Vera Sans" d="M 13 3 L 13 14.5625 L 8.71875 10.28125 L 7.28125 11.71875 L 10.5625 15 L 0 15 L 0 17 L 10.5625 17 L 7.28125 20.28125 L 8.71875 21.71875 L 13 17.4375 L 13 29 L 15 29 L 15 3 L 13 3 z M 17 3 L 17 29 L 19 29 L 19 17.4375 L 23.28125 21.71875 L 24.71875 20.28125 L 21.4375 17 L 32 17 L 32 15 L 21.4375 15 L 24.71875 11.71875 L 23.28125 10.28125 L 19 14.5625 L 19 3 L 17 3 z"/>
</svg>