<svg xmlns="http://www.w3.org/2000/svg" viewBox="0 0 32 32" enable-background="new 0 0 32 32">
    <path style="text-indent:0;text-align:start;line-height:normal;text-transform:none;block-progression:tb;-inkscape-font-specification:Bitstream Vera Sans" d="M 24.5 4.28125 L 23.09375 5.71875 L 25.375 8 L 3 8 L 3 10 L 25.375 10 L 23.09375 12.28125 L 24.5 13.71875 L 28.5 9.71875 L 29.21875 9 L 28.5 8.28125 L 24.5 4.28125 z M 3 16 L 3 27 L 5 27 L 5 16 L 3 16 z M 7 16 L 7 27 L 9 27 L 9 16 L 7 16 z M 11 16 L 11 27 L 13 27 L 13 16 L 11 16 z M 15 16 L 15 27 L 17 27 L 17 16 L 15 16 z M 19 16 L 19 27 L 21 27 L 21 16 L 19 16 z M 23 16 L 23 27 L 25 27 L 25 16 L 23 16 z M 27 16 L 27 27 L 29 27 L 29 16 L 27 16 z"/>
</svg>