<svg xmlns="http://www.w3.org/2000/svg" viewBox="0 0 32 32" enable-background="new 0 0 32 32">
    <path style="text-indent:0;text-align:start;line-height:normal;text-transform:none;block-progression:tb;-inkscape-font-specification:Bitstream Vera Sans" d="M 16 3 C 9.9545455 3 5 7.9545455 5 14 L 5 15.53125 C 4.3951086 16.180806 4 17.030624 4 18 C 4 19.594498 5.0278263 20.807533 6.375 21.46875 C 7.5100582 25.735 11.354072 29 16 29 C 19.271838 29 22.163526 27.468854 23.96875 25 L 24 25 C 25.933578 25 27.533383 23.635551 27.90625 21.8125 C 28.103275 21.721846 28.282605 21.592395 28.4375 21.4375 C 28.814531 21.060469 29 20.522222 29 20 L 29 15 C 29 14.477778 28.814531 13.939531 28.4375 13.5625 C 28.060469 13.185469 27.522222 13 27 13 L 26.9375 13 C 26.428661 7.4163235 21.709467 3 16 3 z M 16 5 C 20.366336 5 24.004935 8.1441016 24.8125 12.28125 C 24.63094 12.212622 24.449637 12.165226 24.28125 12.125 C 23.571076 11.955347 22.883329 11.908332 22.25 11.75 C 21.616671 11.591668 21.106541 11.364047 20.71875 10.875 C 20.330959 10.385953 20 9.5529412 20 8 L 18 8 C 18 9.9727273 17.435105 10.76592 16.59375 11.28125 C 15.752395 11.79658 14.417395 11.96982 12.96875 12 C 11.520105 12.03018 10.028254 11.91749 8.6875 12.1875 C 8.1217248 12.301441 7.5436362 12.480575 7.0625 12.84375 C 7.6370091 8.4351151 11.439859 5 16 5 z M 18.9375 11.78125 C 19.010651 11.89355 19.075291 12.022902 19.15625 12.125 C 19.893459 13.054703 20.883329 13.470832 21.75 13.6875 C 22.616671 13.904168 23.428924 13.963403 23.84375 14.0625 C 23.974449 14.093723 23.968119 14.106456 24 14.125 L 24 21 L 24 22 L 25 22 L 25.75 22 C 25.427761 22.614932 24.810108 23 24 23 L 17.90625 23 C 17.70241 22.413588 17.155838 22 16.5 22 C 15.671573 22 15 22.671573 15 23.5 C 15 24.328427 15.671573 25 16.5 25 L 21.3125 25 C 19.921986 26.257166 18.067132 27 16 27 C 12.18062 27 8.9864278 24.23829 8.1875 20.6875 L 8.0625 20.125 L 7.5 19.9375 C 6.5685346 19.650895 6 18.971429 6 18 C 6 17.161538 6.6694882 16.314571 7.25 16.15625 L 8 15.96875 L 8 15.1875 C 8 14.746078 8.0893413 14.627021 8.21875 14.5 C 8.3481587 14.372979 8.6078772 14.247806 9.0625 14.15625 C 9.9717455 13.973138 11.479895 14.03232 13.03125 14 C 14.582605 13.96768 16.247605 13.831545 17.65625 12.96875 C 18.141818 12.671339 18.583371 12.269795 18.9375 11.78125 z M 26 15 L 27 15 L 27 20 L 26 20 L 26 15 z M 12.5 16 C 11.671573 16 11 16.671573 11 17.5 C 11 18.328427 11.671573 19 12.5 19 C 13.328427 19 14 18.328427 14 17.5 C 14 16.671573 13.328427 16 12.5 16 z M 19.5 16 C 18.671573 16 18 16.671573 18 17.5 C 18 18.328427 18.671573 19 19.5 19 C 20.328427 19 21 18.328427 21 17.5 C 21 16.671573 20.328427 16 19.5 16 z" color="#000" overflow="visible" enable-background="accumulate" font-family="Bitstream Vera Sans"/>
</svg>