<svg xmlns="http://www.w3.org/2000/svg" viewBox="0 0 32 32" enable-background="new 0 0 32 32">
    <path style="text-indent:0;text-align:start;line-height:normal;text-transform:none;block-progression:tb;-inkscape-font-specification:Bitstream Vera Sans" d="M 6 3 L 6 4 L 6 28 L 6 29 L 7 29 L 25 29 L 26 29 L 26 28 L 26 4 L 26 3 L 25 3 L 7 3 L 6 3 z M 9 5 L 23 5 L 23.40625 6.09375 C 23.60625 5.99375 23.8 6 24 6 L 24 27 L 8 27 L 8 6 C 8 6 8.39375 5.99375 8.59375 6.09375 L 9 5 z M 11.1875 5.40625 L 10 7 C 10.4 7.3 10.7875 7.69375 11.1875 8.09375 L 12.6875 6.8125 C 12.1875 6.3125 11.6875 5.80625 11.1875 5.40625 z M 20.8125 5.5 C 20.3125 5.9 19.8125 6.40625 19.3125 6.90625 L 20.8125 8.1875 C 21.2125 7.6875 21.6 7.3 22 7 L 20.8125 5.5 z M 14 8.40625 L 12.3125 9.59375 C 12.7125 9.99375 13.0125 10.49375 13.3125 11.09375 L 15.09375 10.09375 C 14.69375 9.49375 14.4 8.90625 14 8.40625 z M 18 8.40625 C 17.6 8.90625 17.20625 9.49375 16.90625 10.09375 L 18.6875 11.09375 C 18.9875 10.49375 19.29375 10 19.59375 9.5 L 18 8.40625 z M 16 11.90625 L 14.09375 12.6875 C 14.29375 13.2875 14.4875 13.80625 14.6875 14.40625 L 16 14 L 17.40625 14.40625 C 17.50625 13.80625 17.70625 13.2875 17.90625 12.6875 L 16 11.90625 z M 15 16 L 15 18.1875 C 13.844255 18.605718 13 19.707982 13 21 C 13 22.64501 14.35499 24 16 24 C 17.64501 24 19 22.64501 19 21 C 19 19.707982 18.155745 18.605718 17 18.1875 L 17 16 L 15 16 z M 16 20 C 16.564128 20 17 20.435872 17 21 C 17 21.564128 16.564128 22 16 22 C 15.435872 22 15 21.564128 15 21 C 15 20.435872 15.435872 20 16 20 z" color="#000" overflow="visible" enable-background="accumulate" font-family="Bitstream Vera Sans"/>
</svg>