<svg xmlns="http://www.w3.org/2000/svg" viewBox="0 0 32 32" enable-background="new 0 0 32 32">
    <path style="text-indent:0;text-align:start;line-height:normal;text-transform:none;block-progression:tb;-inkscape-font-specification:Bitstream Vera Sans" d="M 4 4 L 4 5 L 4 11 L 4 12 L 5 12 L 7 12 L 7 20 L 4 20 L 4 28 L 12 28 L 12 25 L 20 25 L 20 27 L 20 28 L 21 28 L 27 28 L 28 28 L 28 27 L 28 21 L 28 20 L 27 20 L 25 20 L 25 12 L 27 12 L 28 12 L 28 11 L 28 5 L 28 4 L 27 4 L 21 4 L 20 4 L 20 5 L 20 7 L 12 7 L 12 5 L 12 4 L 11 4 L 5 4 L 4 4 z M 6 6 L 10 6 L 10 10 L 6 10 L 6 6 z M 22 6 L 26 6 L 26 10 L 22 10 L 22 6 z M 12 9 L 20 9 L 20 11 L 20 12 L 21 12 L 23 12 L 23 20 L 21 20 L 20 20 L 20 21 L 20 23 L 12 23 L 12 20 L 9 20 L 9 12 L 11 12 L 12 12 L 12 11 L 12 9 z M 22 22 L 26 22 L 26 26 L 22 26 L 22 22 z"/>
</svg>