<svg xmlns="http://www.w3.org/2000/svg" viewBox="0 0 32 32" enable-background="new 0 0 32 32">
    <path style="text-indent:0;text-align:start;line-height:normal;text-transform:none;block-progression:tb;-inkscape-font-specification:Bitstream Vera Sans" d="M 10 3 C 5.5935667 3 2 6.5935667 2 11 C 2 13.949059 3.6143688 16.518948 6 17.90625 L 6 26 L 6 27 L 7 27 L 27 27 L 28 27 L 28 26 L 28 12 L 28 11 L 28 8 L 28 7 L 27 7 L 23 7 L 23 6 L 21 6 L 21 7 L 16.90625 7 C 15.518948 4.6143688 12.949059 3 10 3 z M 10 5 C 13.325553 5 16 7.674447 16 11 C 16 14.325553 13.325553 17 10 17 C 6.674447 17 4 14.325553 4 11 C 4 7.6744469 6.6744469 5 10 5 z M 9 7 L 9 11.5625 L 7.28125 13.28125 L 8.71875 14.71875 L 10.71875 12.71875 L 11 12.40625 L 11 12 L 11 7 L 9 7 z M 17.71875 9 L 21 9 L 21 10 L 23 10 L 23 9 L 26 9 L 26 11 L 18 11 C 18 10.304957 17.886653 9.6436823 17.71875 9 z M 17.71875 13 L 26 13 L 26 25 L 8 25 L 8 18.71875 C 8.6436823 18.886653 9.304957 19 10 19 C 13.71139 19 16.822183 16.437134 17.71875 13 z M 18 17 L 18 19 L 20 19 L 20 17 L 18 17 z M 22 17 L 22 19 L 24 19 L 24 17 L 22 17 z M 10 21 L 10 23 L 12 23 L 12 21 L 10 21 z M 14 21 L 14 23 L 16 23 L 16 21 L 14 21 z M 18 21 L 18 23 L 20 23 L 20 21 L 18 21 z M 22 21 L 22 23 L 24 23 L 24 21 L 22 21 z"/>
</svg>