<svg xmlns="http://www.w3.org/2000/svg" viewBox="0 0 32 32" enable-background="new 0 0 32 32">
    <path style="text-indent:0;text-align:start;line-height:normal;text-transform:none;block-progression:tb;-inkscape-font-specification:Bitstream Vera Sans" d="M 4 4 L 4 5 L 4 27 L 4 28 L 5 28 L 27 28 L 28 28 L 28 27 L 28 5 L 28 4 L 27 4 L 5 4 L 4 4 z M 6 6 L 26 6 L 26 26 L 6 26 L 6 6 z M 13.5 8 C 12.116667 8 11 9.1166667 11 10.5 C 11 11.883333 12.116667 13 13.5 13 L 18.5 13 C 19.883333 13 21 11.883333 21 10.5 C 21 9.1166667 19.883333 8 18.5 8 L 13.5 8 z M 13.5 10 L 18.5 10 C 18.716667 10 19 10.283333 19 10.5 C 19 10.716667 18.716667 11 18.5 11 L 13.5 11 C 13.283333 11 13 10.716667 13 10.5 C 13 10.283333 13.283333 10 13.5 10 z M 19 18 L 18 19 L 18 21 L 20 21 L 20 19 L 19 18 z M 23 18 L 22 19 L 22 21 L 24 21 L 24 19 L 23 18 z M 18 22 L 18 24 L 24 24 L 24 22 L 18 22 z" color="#000" overflow="visible" enable-background="accumulate" font-family="Bitstream Vera Sans"/>
</svg>