<svg xmlns="http://www.w3.org/2000/svg" viewBox="0 0 32 32" enable-background="new 0 0 32 32">
    <path style="text-indent:0;text-align:start;line-height:normal;text-transform:none;block-progression:tb;-inkscape-font-specification:Bitstream Vera Sans" d="M 16 4 C 12.698136 4 10 6.6981362 10 10 C 10 11.006037 10.245781 11.946548 10.6875 12.78125 C 8.8619536 12.33779 6.6419389 12 4 12 L 2.71875 12 L 3.03125 13.25 L 6.03125 25.25 L 6.21875 26 L 7 26 C 10.404762 26 12.500721 26.486378 13.71875 26.9375 C 14.327764 27.163061 14.714802 27.386012 14.9375 27.53125 C 15.160198 27.676488 15.1875 27.6875 15.1875 27.6875 L 15.46875 28 L 15.90625 28 L 16.09375 28 L 16.53125 28 L 16.8125 27.6875 C 16.8125 27.6875 16.8398 27.67649 17.0625 27.53125 C 17.285198 27.386012 17.672236 27.163061 18.28125 26.9375 C 19.499279 26.486378 21.595238 26 25 26 L 25.78125 26 L 25.96875 25.25 L 28.96875 13.25 L 29.28125 12 L 28 12 C 25.372879 12 23.15125 12.318308 21.34375 12.75 C 21.772865 11.924661 22 10.990559 22 10 C 22 6.6981362 19.301864 4 16 4 z M 16 6 C 18.220984 6 20 7.7790164 20 10 C 20 12.220984 18.220984 14 16 14 C 13.779016 14 12 12.220984 12 10 C 12 7.7790164 13.779016 6 16 6 z M 5.3125 14.125 C 8.421897 14.278524 10.962399 14.817897 12.625 15.4375 C 13.966173 15.937316 14.62507 16.32332 15 16.5625 L 15 25.3125 C 14.822105 25.230616 14.657168 25.143858 14.4375 25.0625 C 13.084266 24.561302 10.868513 24.140651 7.78125 24.0625 L 5.3125 14.125 z M 26.6875 14.125 L 24.21875 24.0625 C 21.131487 24.14065 18.915734 24.561302 17.5625 25.0625 C 17.342832 25.143858 17.177895 25.230616 17 25.3125 L 17 16.5625 C 17.376788 16.319769 18.032685 15.929149 19.34375 15.4375 C 20.994995 14.818283 23.540371 14.277849 26.6875 14.125 z" color="#000" overflow="visible" enable-background="accumulate" font-family="Bitstream Vera Sans"/>
</svg>