<svg xmlns="http://www.w3.org/2000/svg" viewBox="0 0 32 32" enable-background="new 0 0 32 32">
    <path style="text-indent:0;text-align:start;line-height:normal;text-transform:none;block-progression:tb;-inkscape-font-specification:Bitstream Vera Sans" d="M 16 4 C 12.698136 4 10 6.6981362 10 10 C 10 11.937221 10.94046 13.651395 12.375 14.75 C 10.766658 15.454373 9.4329764 16.643215 8.46875 18.125 C 7.6206997 18.415812 6.9802867 19.244659 7.125 20.21875 L 7.09375 20.21875 L 7.34375 22.09375 C 6.0156805 22.401281 5 23.584223 5 25 C 5 26.645455 6.3545455 28 8 28 L 9.90625 28 L 11 28 L 22.09375 28 L 24 28 C 25.645455 28 27 26.645455 27 25 C 27 23.538813 25.922732 22.320061 24.53125 22.0625 L 24.78125 20.25 C 24.78315 20.23879 24.77955 20.22993 24.78125 20.21875 C 24.917294 19.303011 24.364018 18.522022 23.59375 18.1875 C 22.628328 16.717588 21.263873 15.511685 19.625 14.78125 C 21.067831 13.683216 22 11.943782 22 10 C 22 6.6981362 19.301864 4 16 4 z M 16 6 C 18.220984 6 20 7.7790164 20 10 C 20 12.220984 18.220984 14 16 14 C 13.779016 14 12 12.220984 12 10 C 12 7.7790164 13.779016 6 16 6 z M 16 16 C 17.888801 16 19.607755 16.780637 20.875 18 L 11.0625 18 C 12.330338 16.737624 14.064783 16 16 16 z M 9.09375 20 L 22.8125 20 L 22 25.96875 L 22 26 L 11 26 L 9.90625 26 C 9.91625 26 9.9060622 25.97119 9.90625 25.96875 L 9.09375 20 z M 21 21 C 20.447715 21 20 21.447715 20 22 C 20 22.552285 20.447715 23 21 23 C 21.552285 23 22 22.552285 22 22 C 22 21.447715 21.552285 21 21 21 z M 24.28125 24.0625 C 24.689929 24.188044 25 24.548753 25 25 C 25 25.554545 24.554545 26 24 26 L 24.28125 24.0625 z M 7.625 24.09375 L 7.875 25.96875 C 7.3854745 25.902836 7 25.508333 7 25 C 7 24.584091 7.265767 24.245029 7.625 24.09375 z" color="#000" overflow="visible" enable-background="accumulate" font-family="Bitstream Vera Sans"/>
</svg>