<svg xmlns="http://www.w3.org/2000/svg" viewBox="0 0 32 32" enable-background="new 0 0 32 32">
    <path style="text-indent:0;text-align:start;line-height:normal;text-transform:none;block-progression:tb;-inkscape-font-specification:Bitstream Vera Sans" d="M 16.59375 5 C 15.99375 5 15.2875 5.10625 14.6875 5.40625 C 11.0875 6.80625 9 7.60625 8.5 7.90625 C 6.4 8.90625 5.2 10.6125 5 12.8125 L 4 24.5 L 4 24.59375 L 4 24.6875 L 4 25 L 4 27 L 6 27 L 8.5 27 L 10.40625 27 L 10.5 27 L 13 27 L 15 27 L 15 25 L 15 24.59375 L 15 24.40625 L 15 24.1875 L 13.5 15.59375 L 16.5 14.3125 L 17 16.40625 L 17 17 L 17 24 C 17 25.645455 18.354545 27 20 27 L 24 27 C 25.645455 27 27 25.645455 27 24 L 27 17 L 27 16 L 26 16 L 23.6875 16 L 23.5 15.3125 L 22.75 12.78125 C 23.142851 12.911414 23.565375 13 24 13 C 26.197294 13 28 11.197294 28 9 C 28 6.8027056 26.197294 5 24 5 C 22.560491 5 21.298621 5.7860121 20.59375 6.9375 C 19.627202 5.7753875 18.161929 5 16.59375 5 z M 16.59375 7 C 17.89375 7 19.19375 7.8875 19.59375 9.1875 L 21.59375 16 L 19 16 L 17.90625 11.6875 L 11.3125 14.5 L 13 24.59375 L 13 25 L 10.5 25 L 9.09375 16.8125 L 8.5 25 L 6 25 L 6 24.59375 L 7 13 C 7.1 11.3 8.0125 10.2875 9.3125 9.6875 C 9.9125 9.3875 13.00625 8.1875 15.40625 7.1875 C 15.80625 7.0875 16.19375 7 16.59375 7 z M 24 7 C 25.116414 7 26 7.883586 26 9 C 26 10.116414 25.116414 11 24 11 C 22.883586 11 22 10.116414 22 9 C 22 7.883586 22.883586 7 24 7 z M 19 18 L 25 18 L 25 24 C 25 24.554545 24.554545 25 24 25 L 20 25 C 19.445455 25 19 24.554545 19 24 L 19 18 z" color="#000" overflow="visible" enable-background="accumulate" font-family="Bitstream Vera Sans"/>
</svg>