<svg xmlns="http://www.w3.org/2000/svg" viewBox="0 0 32 32" enable-background="new 0 0 32 32">
    <path style="text-indent:0;text-align:start;line-height:normal;text-transform:none;block-progression:tb;-inkscape-font-specification:Bitstream Vera Sans" d="M 4 4 L 4 5 L 4 7.65625 L 1.1875 11.40625 L 1 11.65625 L 1 12 C 1 13.645455 2.3545455 15 4 15 L 4 27 L 4 28 L 5 28 L 19 28 L 20 28 L 20 27 L 20 19 L 22 19 L 22 27 L 22 28 L 23 28 L 27 28 L 28 28 L 28 27 L 28 15 C 29.645455 15 31 13.645455 31 12 L 31 11.65625 L 30.8125 11.40625 L 28 7.65625 L 28 5 L 28 4 L 27 4 L 5 4 L 4 4 z M 6 6 L 26 6 L 26 7 L 6 7 L 6 6 z M 5.5 9 L 26.5 9 L 28.90625 12.21875 C 28.796875 12.652644 28.469091 13 28 13 C 27.445455 13 27 12.554545 27 12 L 25 12 C 25 12.554545 24.554545 13 24 13 C 23.445455 13 23 12.554545 23 12 L 21 12 C 21 12.554545 20.554545 13 20 13 C 19.445455 13 19 12.554545 19 12 L 17 12 C 17 12.554545 16.554545 13 16 13 C 15.445455 13 15 12.554545 15 12 L 13 12 C 13 12.554545 12.554545 13 12 13 C 11.445455 13 11 12.554545 11 12 L 9 12 C 9 12.554545 8.5545455 13 8 13 C 7.4454545 13 7 12.554545 7 12 L 5 12 C 5 12.554545 4.5545455 13 4 13 C 3.5309091 13 3.2031253 12.652644 3.09375 12.21875 L 5.5 9 z M 6 14.21875 C 6.5328745 14.699734 7.2329278 15 8 15 C 8.7670722 15 9.4671255 14.699734 10 14.21875 C 10.532874 14.699734 11.232928 15 12 15 C 12.767072 15 13.467126 14.699734 14 14.21875 C 14.532874 14.699734 15.232928 15 16 15 C 16.767072 15 17.467126 14.699734 18 14.21875 C 18.532874 14.699734 19.232928 15 20 15 C 20.767072 15 21.467126 14.699734 22 14.21875 C 22.532874 14.699734 23.232928 15 24 15 C 24.767072 15 25.467126 14.699734 26 14.21875 L 26 26 L 24 26 L 24 18 L 24 17 L 23 17 L 19 17 L 18 17 L 18 18 L 18 26 L 6 26 L 6 14.21875 z M 8 17 L 8 18 L 8 23 L 8 24 L 9 24 L 15 24 L 16 24 L 16 23 L 16 18 L 16 17 L 15 17 L 9 17 L 8 17 z M 10 19 L 14 19 L 14 22 L 10 22 L 10 19 z"/>
</svg>