<svg xmlns="http://www.w3.org/2000/svg" viewBox="0 0 32 32" enable-background="new 0 0 32 32">
    <path style="text-indent:0;text-align:start;line-height:normal;text-transform:none;block-progression:tb;-inkscape-font-specification:Bitstream Vera Sans" d="M 6 3 L 6 29 L 16.8125 29 L 18.8125 27 L 8 27 L 8 5 L 18 5 L 18 10 L 18 11 L 19 11 L 24 11 L 24 16.40625 C 24.6 16.20625 25.3 16 26 16 L 26 9.59375 L 19.40625 3 L 6 3 z M 20 6.40625 L 22.59375 9 L 20 9 L 20 6.40625 z M 26.5 18 C 23.474279 18 21 20.474279 21 23.5 C 21 24.658923 21.35081 25.735927 21.96875 26.625 L 18.28125 30.28125 L 19.71875 31.71875 L 23.375 28.03125 C 24.264073 28.64919 25.341077 29 26.5 29 C 29.525721 29 32 26.525721 32 23.5 C 32 20.474279 29.525721 18 26.5 18 z M 26.5 20 C 28.444841 20 30 21.555159 30 23.5 C 30 25.444841 28.444841 27 26.5 27 C 24.555159 27 23 25.444841 23 23.5 C 23 21.555159 24.555159 20 26.5 20 z" color="#000" overflow="visible" enable-background="accumulate" font-family="Bitstream Vera Sans"/>
</svg>