<svg xmlns="http://www.w3.org/2000/svg" viewBox="0 0 32 32" enable-background="new 0 0 32 32">
    <path style="text-indent:0;text-align:start;line-height:normal;text-transform:none;block-progression:tb;-inkscape-font-specification:Bitstream Vera Sans" d="M 27.40625 4.8125 L 25.6875 5.90625 C 26.4875 7.80625 27 9.8 27 12 C 27 14.2 26.4875 16.19375 25.6875 18.09375 L 27.40625 19.1875 C 28.40625 16.9875 29 14.6 29 12 C 29 9.4 28.40625 7.0125 27.40625 4.8125 z M 11 6.5 C 7.6981362 6.5 5 9.1981362 5 12.5 C 5 14.483743 5.9751342 16.250036 7.46875 17.34375 C 4.8243111 18.646755 3 21.343686 3 24.5 L 5 24.5 C 5 21.129915 7.6299145 18.5 11 18.5 C 14.370085 18.5 17 21.129915 17 24.5 L 19 24.5 C 19 21.343686 17.175689 18.646755 14.53125 17.34375 C 16.024866 16.250036 17 14.483743 17 12.5 C 17 9.1981362 14.301864 6.5 11 6.5 z M 24 7 L 22.3125 8.09375 C 22.7125 9.29375 23 10.6 23 12 C 23 13.4 22.7125 14.70625 22.3125 15.90625 L 24 17 C 24.6 15.5 25 13.8 25 12 C 25 10.2 24.6 8.5 24 7 z M 11 8.5 C 13.220984 8.5 15 10.279016 15 12.5 C 15 14.720984 13.220984 16.5 11 16.5 C 8.7790164 16.5 7 14.720984 7 12.5 C 7 10.279016 8.7790164 8.5 11 8.5 z M 20.59375 9.3125 L 18.8125 10.5 C 18.9125 11 19 11.5 19 12 C 19 12.5 18.9125 13 18.8125 13.5 L 20.59375 14.6875 C 20.89375 13.7875 21 12.9 21 12 C 21 11.1 20.89375 10.1125 20.59375 9.3125 z" color="#000" overflow="visible" enable-background="accumulate" font-family="Bitstream Vera Sans"/>
</svg>