<svg xmlns="http://www.w3.org/2000/svg" viewBox="0 0 32 32" enable-background="new 0 0 32 32">
    <path style="text-indent:0;text-align:start;line-height:normal;text-transform:none;block-progression:tb;-inkscape-font-specification:Bitstream Vera Sans" d="M 6 3 L 6 4 L 6 10 L 8 10 L 8 5 L 24 5 L 24 10 L 26 10 L 26 4 L 26 3 L 25 3 L 7 3 L 6 3 z M 18 9.84375 L 17.0625 12.6875 L 15.0625 18.6875 L 15 18.84375 L 15 19 L 15 20 L 17 20 L 17 19.125 L 17.03125 19 L 18.96875 19 L 19 19.125 L 19 20 L 21 20 L 21 19 L 21 18.84375 L 20.9375 18.6875 L 18.9375 12.6875 L 18 9.84375 z M 6 12 L 6 13 L 6 13.15625 L 6.03125 13.3125 L 7.9375 19.3125 L 8.15625 20 L 8.90625 20 L 9.09375 20 L 9.84375 20 L 10.0625 19.28125 L 10.5 17.78125 L 10.9375 19.28125 L 11.15625 20 L 11.90625 20 L 12.09375 20 L 12.84375 20 L 13.0625 19.3125 L 14.96875 13.3125 L 15 13.15625 L 15 13 L 15 12 L 13 12 L 13 12.78125 L 12.03125 15.84375 L 11.5625 14.21875 L 11.34375 13.5 L 10.59375 13.5 L 10.40625 13.5 L 9.65625 13.5 L 9.4375 14.21875 L 8.96875 15.84375 L 8 12.78125 L 8 12 L 6 12 z M 21 12 L 21 13 L 21 13.15625 L 21.0625 13.3125 L 23.0625 19.3125 L 24 22.15625 L 24 27 L 8 27 L 8 22 L 6 22 L 6 28 L 6 29 L 7 29 L 25 29 L 26 29 L 26 28 L 26 22 L 24.0625 22 L 24.9375 19.3125 L 26.9375 13.3125 L 27 13.15625 L 27 13 L 27 12 L 25 12 L 25 12.875 L 24 15.875 L 23 12.875 L 23 12 L 21 12 z M 18 16.125 L 18.28125 17 L 17.71875 17 L 18 16.125 z"/>
</svg>