<svg xmlns="http://www.w3.org/2000/svg" viewBox="0 0 32 32" enable-background="new 0 0 32 32">
    <path style="text-indent:0;text-align:start;line-height:normal;text-transform:none;block-progression:tb;-inkscape-font-specification:Bitstream Vera Sans" d="M 6 4 L 6 5 L 6 9 L 5 9 L 5 11 L 8 11 L 8 9 L 8 6 L 24 6 L 24 26 L 8 26 L 8 23 L 6 23 L 6 27 L 6 28 L 7 28 L 25 28 L 26 28 L 26 27 L 26 5 L 26 4 L 25 4 L 7 4 L 6 4 z M 16 10 C 13.802706 10 12 11.802706 12 14 C 12 15.114227 12.475261 16.116062 13.21875 16.84375 C 11.887962 17.745561 11 19.284091 11 21 L 13 21 C 13 19.345455 14.345455 18 16 18 C 17.654545 18 19 19.345455 19 21 L 21 21 C 21 19.284091 20.112038 17.745561 18.78125 16.84375 C 19.524739 16.116062 20 15.114227 20 14 C 20 11.802706 18.197294 10 16 10 z M 6 12 L 6 14 L 5 14 L 5 16 L 8 16 L 8 14 L 8 12 L 6 12 z M 16 12 C 17.116414 12 18 12.883586 18 14 C 18 15.116414 17.116414 16 16 16 C 14.883586 16 14 15.116414 14 14 C 14 12.883586 14.883586 12 16 12 z M 6 17 L 6 19 L 5 19 L 5 21 L 8 21 L 8 19 L 8 17 L 6 17 z" color="#000" overflow="visible" enable-background="accumulate" font-family="Bitstream Vera Sans"/>
</svg>