<svg xmlns="http://www.w3.org/2000/svg" viewBox="0 0 32 32" enable-background="new 0 0 32 32">
    <path style="text-indent:0;text-align:start;line-height:normal;text-transform:none;block-progression:tb;-inkscape-font-specification:Bitstream Vera Sans" d="M 22.5625 4.21875 L 22.21875 6.1875 L 24.25 6.53125 L 19.96875 9.21875 L 18.9375 8.125 L 18.3125 7.46875 L 17.59375 8 L 12.46875 11.78125 L 11.59375 10.90625 L 10.96875 10.25 L 10.28125 10.8125 L 2.78125 16.8125 L 4.03125 18.375 L 10.8125 12.9375 L 11.6875 13.8125 L 12.3125 14.40625 L 13 13.90625 L 18.0625 10.125 L 19.0625 11.1875 L 19.625 11.78125 L 20.34375 11.34375 L 25.46875 8.125 L 24.9375 10.375 L 26.875 10.84375 L 27.96875 6.21875 L 28.21875 5.1875 L 27.15625 5 L 22.5625 4.21875 z M 27 12 L 27 26 L 29 26 L 29 12 L 27 12 z M 23 14 L 23 26 L 25 26 L 25 14 L 23 14 z M 19 16 L 19 26 L 21 26 L 21 16 L 19 16 z M 15 18 L 15 26 L 17 26 L 17 18 L 15 18 z M 11 20 L 11 26 L 13 26 L 13 20 L 11 20 z M 7 22 L 7 26 L 9 26 L 9 22 L 7 22 z M 3 24 L 3 26 L 5 26 L 5 24 L 3 24 z"/>
</svg>