<svg xmlns="http://www.w3.org/2000/svg" viewBox="0 0 32 32" enable-background="new 0 0 32 32">
    <path style="text-indent:0;text-align:start;line-height:normal;text-transform:none;block-progression:tb;-inkscape-font-specification:Bitstream Vera Sans" d="M 3 6 L 3 7 L 3 25 L 3 26 L 4 26 L 9 26 L 10 26 L 11 26 L 21 26 L 22 26 L 23 26 L 28 26 L 29 26 L 29 25 L 29 7 L 29 6 L 28 6 L 4 6 L 3 6 z M 5 8 L 27 8 L 27 24 L 23.59375 24 C 23.514153 23.862911 23.550918 23.675918 23.4375 23.5625 C 23.060469 23.185469 22.522222 23 22 23 C 21.477778 23 20.939531 23.185469 20.5625 23.5625 C 20.449082 23.675918 20.48585 23.862911 20.40625 24 L 11.59375 24 C 11.514153 23.862911 11.550918 23.675918 11.4375 23.5625 C 11.060469 23.185469 10.522222 23 10 23 C 9.4777778 23 8.9395305 23.185469 8.5625 23.5625 C 8.4490818 23.675918 8.4858468 23.862911 8.40625 24 L 5 24 L 5 8 z M 12 10 C 9.8027057 10 8 11.802706 8 14 C 8 15.114227 8.4752606 16.116062 9.21875 16.84375 C 7.8879616 17.745561 7 19.284091 7 21 L 9 21 C 9 19.345455 10.345455 18 12 18 C 13.654545 18 15 19.345455 15 21 L 17 21 C 17 19.284091 16.112038 17.745561 14.78125 16.84375 C 15.524739 16.116062 16 15.114227 16 14 C 16 11.802706 14.197294 10 12 10 z M 12 12 C 13.116414 12 14 12.883586 14 14 C 14 15.116414 13.116414 16 12 16 C 10.883586 16 10 15.116414 10 14 C 10 12.883586 10.883586 12 12 12 z M 19 13 L 19 15 L 25 15 L 25 13 L 19 13 z M 19 17 L 19 19 L 25 19 L 25 17 L 19 17 z" color="#000" overflow="visible" enable-background="accumulate" font-family="Bitstream Vera Sans"/>
</svg>