<svg xmlns="http://www.w3.org/2000/svg" viewBox="0 0 32 32" enable-background="new 0 0 32 32">
    <path d="M 19 2 L 19 6.125 C 17.726051 4.8195721 15.953707 4 14 4 L 8 4 L 8 6 L 14 6 C 16.754545 6 19 8.2454545 19 11 L 19 12 L 19 12.625 L 19.5625 12.90625 L 23 14.625 L 23 16 L 20 16 L 19 16 L 19 17 L 19 21 C 19 22.654545 17.654545 24 16 24 L 12 24 L 11 24 L 11 25 L 11 30 L 13 30 L 13 26 L 16 26 C 17.130812 26 18.158989 25.610479 19 24.96875 L 19 30 L 21 30 L 21 21 L 21 18 L 23 18 L 23 30 L 25 30 L 25 17 L 25 14 L 25 13.375 L 25 2 L 23 2 L 23 12.375 L 21 11.375 L 21 11 L 21 2 L 19 2 z M 16 11 C 15.447715 11 15 11.447715 15 12 C 15 12.552285 15.447715 13 16 13 C 16.552285 13 17 12.552285 17 12 C 17 11.447715 16.552285 11 16 11 z"/>
</svg>