<svg xmlns="http://www.w3.org/2000/svg" viewBox="0 0 32 32" enable-background="new 0 0 32 32">
    <path style="text-indent:0;text-align:start;line-height:normal;text-transform:none;block-progression:tb;-inkscape-font-specification:Bitstream Vera Sans" d="M 20.28125 3.28125 L 16.28125 7.28125 L 15.59375 8 L 16.28125 8.71875 L 20.28125 12.71875 L 21.71875 11.28125 L 19.4375 9 L 23 9 C 24.654545 9 26 10.345455 26 12 C 26 13.654545 24.654545 15 23 15 L 22 15 L 22 17 L 23 17 C 25.745455 17 28 14.745455 28 12 C 28 9.2545455 25.745455 7 23 7 L 19.4375 7 L 21.71875 4.71875 L 20.28125 3.28125 z M 7.8125 7.03125 C 7.297335 7.03125 6.7830267 7.2169733 6.40625 7.59375 L 3.78125 10.1875 C 2.9984073 10.970343 2.7275816 12.124661 3.03125 13.1875 L 3.0625 13.21875 L 3.0625 13.25 C 3.7906061 15.226288 5.5307361 19.260531 9.09375 22.71875 C 12.603766 26.12553 16.471145 27.965052 18.5 28.71875 C 18.51548 28.72455 18.54723 28.74438 18.5625 28.75 L 18.5625 28.71875 C 19.622571 29.142544 20.835937 28.850491 21.59375 28 C 21.61384 27.97745 21.63683 27.96081 21.65625 27.9375 L 24.21875 25.40625 C 24.972303 24.652697 24.972303 23.347303 24.21875 22.59375 L 21.03125 19.3125 L 21 19.3125 L 21 19.28125 C 20.246447 18.527697 18.941053 18.527697 18.1875 19.28125 L 18.15625 19.34375 L 16.625 20.875 C 15.982734 20.555182 14.675439 19.862939 13.40625 18.59375 C 12.137061 17.324561 11.444818 16.017266 11.125 15.375 L 12.71875 13.8125 C 13.472303 13.058947 13.472303 11.753553 12.71875 11 L 12.6875 11 L 12.6875 10.96875 L 9.21875 7.59375 C 9.21153 7.58653 9.194819 7.60083 9.1875 7.59375 C 8.8127904 7.2312709 8.317796 7.03125 7.8125 7.03125 z M 7.8125 9.03125 L 11.28125 12.40625 L 9.1875 14.5 L 8.71875 14.96875 L 8.96875 15.59375 C 8.96875 15.59375 10.029771 18.029771 12 20 C 13.970229 21.970229 16.40625 23.03125 16.40625 23.03125 L 17.03125 23.28125 L 17.5 22.8125 L 19.59375 20.71875 L 22.78125 24 L 22.75 24.03125 L 20.1875 26.59375 L 20.15625 26.625 L 20.125 26.65625 C 19.890869 26.937207 19.579784 27.002943 19.28125 26.875 L 19.25 26.875 C 17.465958 26.217721 13.763196 24.44847 10.5 21.28125 C 7.2894418 18.16512 5.6510274 14.465055 4.96875 12.625 C 4.872418 12.287839 5.001593 11.810907 5.21875 11.59375 L 7.8125 9.03125 z" color="#000" overflow="visible" enable-background="accumulate" font-family="Bitstream Vera Sans"/>
</svg>