<svg xmlns="http://www.w3.org/2000/svg" viewBox="0 0 32 32" enable-background="new 0 0 32 32">
    <path style="text-indent:0;text-align:start;line-height:normal;text-transform:none;block-progression:tb;-inkscape-font-specification:Bitstream Vera Sans" d="M 4 4 L 4 5 L 4 11 L 4 12 L 5 12 L 6 12 L 6 13 L 6 14.875 L 7.5625 13.84375 L 10.3125 12 L 14 12 L 14 14 L 14 15 L 15 15 L 21.5625 15 L 22.59375 16.03125 C 20.58435 16.236528 19 17.939435 19 20 C 19 21.114227 19.475261 22.116062 20.21875 22.84375 C 18.887962 23.745561 18 25.284091 18 27 L 20 27 C 20 25.345455 21.345455 24 23 24 C 24.654545 24 26 25.345455 26 27 L 28 27 C 28 25.284091 27.112038 23.745561 25.78125 22.84375 C 26.524739 22.116062 27 21.114227 27 20 C 27 19.003294 26.61042 18.109152 26 17.40625 L 26 17 L 26 15 L 27 15 L 28 15 L 28 14 L 28 7 L 28 6 L 27 6 L 19 6 L 19 5 L 19 4 L 18 4 L 5 4 L 4 4 z M 6 6 L 17 6 L 17 10 L 10 10 L 9.6875 10 L 9.4375 10.15625 L 8 11.125 L 8 11 L 8 10 L 7 10 L 6 10 L 6 6 z M 19 8 L 26 8 L 26 13 L 25 13 L 24 13 L 24 14 L 24 14.5625 L 22.71875 13.28125 L 22.40625 13 L 22 13 L 16 13 L 16 12 L 18 12 L 19 12 L 19 11 L 19 8 z M 9 16 C 6.8027056 16 5 17.802706 5 20 C 5 21.114227 5.4752606 22.116062 6.21875 22.84375 C 4.8879616 23.745561 4 25.284091 4 27 L 6 27 C 6 25.345455 7.3454545 24 9 24 C 10.654545 24 12 25.345455 12 27 L 14 27 C 14 25.284091 13.112038 23.745561 11.78125 22.84375 C 12.524739 22.116062 13 21.114227 13 20 C 13 17.802706 11.197294 16 9 16 z M 9 18 C 10.116414 18 11 18.883586 11 20 C 11 21.116414 10.116414 22 9 22 C 7.883586 22 7 21.116414 7 20 C 7 18.883586 7.883586 18 9 18 z M 23 18 C 24.116414 18 25 18.883586 25 20 C 25 21.116414 24.116414 22 23 22 C 21.883586 22 21 21.116414 21 20 C 21 18.883586 21.883586 18 23 18 z" color="#000" overflow="visible" enable-background="accumulate" font-family="Bitstream Vera Sans"/>
</svg>