<svg xmlns="http://www.w3.org/2000/svg" viewBox="0 0 32 32" enable-background="new 0 0 32 32">
    <path style="text-indent:0;text-align:start;line-height:normal;text-transform:none;block-progression:tb;-inkscape-font-specification:Bitstream Vera Sans" d="M 16 3 C 8.8321429 3 3 8.8321429 3 16 C 3 23.167857 8.8321429 29 16 29 C 23.167857 29 29 23.167857 29 16 C 29 8.8321429 23.167857 3 16 3 z M 16 5 C 22.086977 5 27 9.9130231 27 16 C 27 22.086977 22.086977 27 16 27 C 9.9130231 27 5 22.086977 5 16 C 5 9.9130231 9.9130231 5 16 5 z M 16.09375 10 C 13.69375 10 11.642701 11.438948 10.6875 13.46875 L 12.5 14.3125 C 13.144799 12.942302 14.49375 12 16.09375 12 C 18.36994 12 20.09375 13.72381 20.09375 16 C 20.09375 18.27619 18.36994 20 16.09375 20 C 14.49375 20 13.144799 19.057698 12.5 17.6875 L 10.6875 18.53125 C 11.642701 20.561052 13.69375 22 16.09375 22 C 19.41756 22 22.09375 19.32381 22.09375 16 C 22.09375 12.67619 19.41756 10 16.09375 10 z" color="#000" overflow="visible" enable-background="accumulate" font-family="Bitstream Vera Sans"/>
</svg>