<svg xmlns="http://www.w3.org/2000/svg" viewBox="0 0 32 32" enable-background="new 0 0 32 32">
    <path style="text-indent:0;text-align:start;line-height:normal;text-transform:none;block-progression:tb;-inkscape-font-specification:Bitstream Vera Sans" d="M 6 3 L 6 4 L 6 10 L 8 10 L 8 5 L 24 5 L 24 10 L 26 10 L 26 4 L 26 3 L 25 3 L 7 3 L 6 3 z M 9.5 12 C 8.1166667 12 7 13.116667 7 14.5 L 7 17.5 C 7 18.883333 8.1166667 20 9.5 20 C 10.883333 20 12 18.883333 12 17.5 L 12 17 L 10 17 L 10 17.5 C 10 17.716667 9.7166667 18 9.5 18 C 9.2833333 18 9 17.716667 9 17.5 L 9 14.5 C 9 14.283333 9.2833333 14 9.5 14 C 9.7166667 14 10 14.283333 10 14.5 L 10 15 L 12 15 L 12 14.5 C 12 13.116667 10.883333 12 9.5 12 z M 15.5 12 C 14.116667 12 13 13.116667 13 14.5 C 13 15.883333 14.116667 17 15.5 17 C 15.716667 17 16 17.283333 16 17.5 C 16 17.8 15.881481 18 15.5 18 C 15.131818 18 15.075546 17.91998 15.0625 17.90625 C 15.049454 17.892518 15 17.827083 15 17.59375 L 13 17.59375 C 13 18.160417 13.163046 18.794982 13.625 19.28125 C 14.086954 19.767518 14.768182 20 15.5 20 C 16.918519 20 18 18.8 18 17.5 C 18 16.116667 16.883333 15 15.5 15 C 15.283333 15 15 14.716667 15 14.5 C 15 14.283333 15.283333 14 15.5 14 C 15.766667 14 15.847593 14.06341 15.90625 14.125 C 15.964907 14.18659 16 14.294345 16 14.40625 L 18 14.40625 C 18 13.818155 17.785093 13.21341 17.34375 12.75 C 16.902407 12.28659 16.233333 12 15.5 12 z M 21.5 12 C 20.116667 12 19 13.116667 19 14.5 C 19 15.883333 20.116667 17 21.5 17 C 21.716667 17 22 17.283333 22 17.5 C 22 17.8 21.881481 18 21.5 18 C 21.131818 18 21.075546 17.91998 21.0625 17.90625 C 21.049454 17.892518 21 17.827083 21 17.59375 L 19 17.59375 C 19 18.160417 19.163046 18.794982 19.625 19.28125 C 20.086954 19.767518 20.768182 20 21.5 20 C 22.918519 20 24 18.8 24 17.5 C 24 16.116667 22.883333 15 21.5 15 C 21.283333 15 21 14.716667 21 14.5 C 21 14.283333 21.283333 14 21.5 14 C 21.766667 14 21.847593 14.06341 21.90625 14.125 C 21.964907 14.18659 22 14.294345 22 14.40625 L 24 14.40625 C 24 13.818155 23.785093 13.21341 23.34375 12.75 C 22.902407 12.28659 22.233333 12 21.5 12 z M 6 22 L 6 28 L 6 29 L 7 29 L 25 29 L 26 29 L 26 28 L 26 22 L 24 22 L 24 27 L 8 27 L 8 22 L 6 22 z" color="#000" overflow="visible" enable-background="accumulate" font-family="Bitstream Vera Sans"/>
</svg>