<svg xmlns="http://www.w3.org/2000/svg" viewBox="0 0 32 32" enable-background="new 0 0 32 32">
    <path style="text-indent:0;text-align:start;line-height:normal;text-transform:none;block-progression:tb;-inkscape-font-specification:Bitstream Vera Sans" d="M 16 3 C 14.354991 3 13 4.3549901 13 6 C 13 6.3529917 13.073239 6.6842395 13.1875 7 L 8 7 L 7.21875 7 L 7.03125 7.78125 L 3.03125 24.78125 L 3 24.875 L 3 25 L 3 26 L 3 27 L 4 27 L 28 27 L 29 27 L 29 26 L 29 25 L 29 24.875 L 28.96875 24.78125 L 24.96875 7.78125 L 24.78125 7 L 24 7 L 18.8125 7 C 18.926761 6.6842395 19 6.3529917 19 6 C 19 4.3549901 17.645009 3 16 3 z M 16 5 C 16.564129 5 17 5.4358709 17 6 C 17 6.5641291 16.564129 7 16 7 C 15.435871 7 15 6.5641291 15 6 C 15 5.4358709 15.435871 5 16 5 z M 8.78125 9 L 16 9 L 23.21875 9 L 26.96875 25 L 5.03125 25 L 8.78125 9 z M 15 12 L 15 13 L 14.5 13 C 13.116667 13 12 14.116667 12 15.5 C 12 16.883333 13.116667 18 14.5 18 L 17.5 18 C 17.716667 18 18 18.283333 18 18.5 C 18 18.716667 17.716667 19 17.5 19 L 12 19 L 12 21 L 15 21 L 15 22 L 17 22 L 17 21 L 17.5 21 C 18.883333 21 20 19.883333 20 18.5 C 20 17.116667 18.883333 16 17.5 16 L 14.5 16 C 14.283333 16 14 15.716667 14 15.5 C 14 15.283333 14.283333 15 14.5 15 L 19 15 L 19 13 L 17 13 L 17 12 L 15 12 z" color="#000" overflow="visible" enable-background="accumulate" font-family="Bitstream Vera Sans"/>
</svg>