<svg xmlns="http://www.w3.org/2000/svg" viewBox="0 0 32 32" enable-background="new 0 0 32 32">
    <path style="text-indent:0;text-align:start;line-height:normal;text-transform:none;block-progression:tb;-inkscape-font-specification:Bitstream Vera Sans" d="M 16 3.90625 L 15.59375 4.09375 L 4.59375 9.09375 L 4 9.34375 L 4 10 L 4 27 L 4 28 L 5 28 L 14 28 L 15 28 L 15 27 L 15 22 L 17 22 L 17 27 L 17 28 L 18 28 L 27 28 L 28 28 L 28 27 L 28 10 L 28 9.34375 L 27.40625 9.09375 L 16.40625 4.09375 L 16 3.90625 z M 16 6.09375 L 26 10.625 L 26 26 L 19 26 L 19 21 L 19 20 L 18 20 L 14 20 L 13 20 L 13 21 L 13 26 L 6 26 L 6 10.625 L 16 6.09375 z M 8 12 L 8 14 L 12 14 L 12 12 L 8 12 z M 14 12 L 14 14 L 18 14 L 18 12 L 14 12 z M 20 12 L 20 14 L 24 14 L 24 12 L 20 12 z M 8 16 L 8 18 L 12 18 L 12 16 L 8 16 z M 14 16 L 14 18 L 18 18 L 18 16 L 14 16 z M 20 16 L 20 18 L 24 18 L 24 16 L 20 16 z M 8 20 L 8 22 L 12 22 L 12 20 L 8 20 z M 20 20 L 20 22 L 24 22 L 24 20 L 20 20 z"/>
</svg>