<svg xmlns="http://www.w3.org/2000/svg" viewBox="0 0 32 32" enable-background="new 0 0 32 32">
    <path style="text-indent:0;text-align:start;line-height:normal;text-transform:none;block-progression:tb;-inkscape-font-specification:Bitstream Vera Sans" d="M 3 9 C 1.9045455 9 1.1404708 9.8128084 0.6875 10.71875 C 0.2345292 11.624692 0 12.763636 0 14 C 0 15.236364 0.2345292 16.375308 0.6875 17.28125 C 1.1404708 18.187192 1.9045455 19 3 19 L 11.625 19 L 8.875 23.15625 L 7.84375 24.6875 L 9.6875 24.6875 L 11.4375 24.6875 L 12.1875 26.3125 L 12.9375 27.96875 L 13.9375 26.4375 L 15.96875 23.34375 L 18.0625 26.46875 L 19.0625 27.9375 L 19.8125 26.3125 L 20.5625 24.6875 L 22.3125 24.6875 L 24.15625 24.6875 L 23.125 23.15625 L 20.375 19 L 29 19 C 30.092725 19 30.859581 18.187088 31.3125 17.28125 C 31.765419 16.375412 32 15.23968 32 14 C 32 12.76032 31.765419 11.624588 31.3125 10.71875 C 30.859581 9.8129124 30.092725 9 29 9 L 14 9 L 3 9 z M 3 11 L 11.5625 11 C 11.192817 11.857083 11 12.885012 11 14 C 11 15.114988 11.192817 16.142917 11.5625 17 L 3 17 C 2.9954545 17 2.7407792 16.919058 2.46875 16.375 C 2.1967208 15.830942 2 14.963636 2 14 C 2 13.036364 2.1967208 12.169058 2.46875 11.625 C 2.7407792 11.080942 2.9954545 11 3 11 z M 14 11 L 16.5625 11 C 16.192817 11.857083 16 12.885012 16 14 C 16 15.114988 16.192817 16.142917 16.5625 17 L 14 17 C 13.9955 17 13.740779 16.91906 13.46875 16.375 C 13.196721 15.830942 13 14.963636 13 14 C 13 13.036364 13.196721 12.169058 13.46875 11.625 C 13.740779 11.080942 13.995455 11 14 11 z M 19 11 L 26.5625 11 C 26.192847 11.856523 26 12.882021 26 14 C 26 15.117979 26.192847 16.143477 26.5625 17 L 19 17 C 18.9955 17 18.740779 16.91906 18.46875 16.375 C 18.196721 15.830942 18 14.963636 18 14 C 18 13.036364 18.196721 12.169058 18.46875 11.625 C 18.740779 11.080942 18.995455 11 19 11 z M 29 11 C 29.01184 11 29.260311 11.08312 29.53125 11.625 C 29.802189 12.166878 30 13.030541 30 14 C 30 14.969459 29.802189 15.833122 29.53125 16.375 C 29.260311 16.916878 29.011844 17 29 17 C 28.988156 17 28.739689 16.916878 28.46875 16.375 C 28.197811 15.833122 28 14.969459 28 14 C 28 13.030541 28.197811 12.166878 28.46875 11.625 C 28.739689 11.083122 28.988156 11 29 11 z M 15.46875 19 L 18 19 L 20.4375 22.6875 L 19.90625 22.6875 L 19.25 22.6875 L 19 23.28125 L 18.75 23.875 L 15.46875 19 z M 13.53125 19.6875 L 14.75 21.53125 L 13.25 23.8125 L 13 23.28125 L 12.75 22.6875 L 12.09375 22.6875 L 11.5625 22.6875 L 13.53125 19.6875 z" color="#000" overflow="visible" enable-background="accumulate" font-family="Bitstream Vera Sans"/>
</svg>