<svg xmlns="http://www.w3.org/2000/svg" viewBox="0 0 32 32" enable-background="new 0 0 32 32">
    <path style="text-indent:0;text-align:start;line-height:normal;text-transform:none;block-progression:tb;-inkscape-font-specification:Bitstream Vera Sans" d="M 16 2 C 14.618503 2 13.466889 2.9698452 13.125 4.25 C 12.773892 4.1044457 12.40108 4 12 4 C 10.354545 4 9 5.3545455 9 7 L 9 16.8125 L 8.34375 16.125 L 8.09375 15.90625 C 6.9401966 14.752697 5.0598034 14.752697 3.90625 15.90625 C 2.7526966 17.059803 2.7526966 18.940197 3.90625 20.09375 L 3.90625 20.125 L 12.09375 28.21875 L 12.15625 28.25 L 12.1875 28.3125 C 13.536833 29.3245 15.252206 30 17.1875 30 L 18.90625 30 C 23.439583 30 27.09375 26.345833 27.09375 21.8125 L 27.09375 9 C 27.09375 7.3545455 25.739205 6 24.09375 6 C 23.706382 6 23.341245 6.0824867 23 6.21875 L 23 6 C 23 4.3545455 21.645455 3 20 3 C 19.466276 3 18.967462 3.1575218 18.53125 3.40625 C 17.997783 2.5626781 17.062787 2 16 2 z M 16 4 C 16.554545 4 17 4.4454545 17 5 L 17 13 L 19 13 L 19 6 C 19 5.4454545 19.445455 5 20 5 C 20.554545 5 21 5.4454545 21 6 L 21 9 L 21.09375 9 L 21.09375 14 L 23.09375 14 L 23.09375 9 C 23.09375 8.4454545 23.539205 8 24.09375 8 C 24.648295 8 25.09375 8.4454545 25.09375 9 L 25.09375 21.8125 C 25.09375 25.279167 22.372917 28 18.90625 28 L 17.1875 28 C 15.722794 28 14.456917 27.4755 13.40625 26.6875 L 5.3125 18.6875 C 4.8660534 18.241053 4.8660534 17.758947 5.3125 17.3125 C 5.7589466 16.866053 6.2410534 16.866053 6.6875 17.3125 L 9.28125 19.90625 L 11 21.625 L 11 19.1875 L 11 7 C 11 6.4454545 11.445455 6 12 6 C 12.554545 6 13 6.4454545 13 7 L 13 14 L 15 14 L 15 7 L 15 5 C 15 4.4454545 15.445455 4 16 4 z M 15.71875 16.28125 L 14.28125 17.71875 L 16.5625 20 L 14.28125 22.28125 L 15.71875 23.71875 L 18 21.4375 L 20.28125 23.71875 L 21.71875 22.28125 L 19.4375 20 L 21.71875 17.71875 L 20.28125 16.28125 L 18 18.5625 L 15.71875 16.28125 z" color="#000" overflow="visible" enable-background="accumulate" font-family="Bitstream Vera Sans"/>
</svg>