<svg xmlns="http://www.w3.org/2000/svg" viewBox="0 0 32 32" enable-background="new 0 0 32 32">
    <path style="text-indent:0;text-align:start;line-height:normal;text-transform:none;block-progression:tb;-inkscape-font-specification:Bitstream Vera Sans" d="M 6 3 L 6 4 L 6 10 L 8 10 L 8 5 L 24 5 L 24 10 L 26 10 L 26 4 L 26 3 L 25 3 L 7 3 L 6 3 z M 8 12 L 8 13 L 8 19 L 8 20 L 9 20 L 10 20 C 11.645455 20 13 18.645455 13 17 L 13 15 C 13 13.354545 11.645455 12 10 12 L 9 12 L 8 12 z M 16.5 12 C 15.116667 12 14 13.116667 14 14.5 L 14 17.5 C 14 18.883333 15.116667 20 16.5 20 C 17.883333 20 19 18.883333 19 17.5 L 19 14.5 C 19 13.116667 17.883333 12 16.5 12 z M 22.5 12 C 21.116667 12 20 13.116667 20 14.5 L 20 17.5 C 20 18.883333 21.116667 20 22.5 20 C 23.883333 20 25 18.883333 25 17.5 L 25 17 L 23 17 L 23 17.5 C 23 17.716667 22.716667 18 22.5 18 C 22.283333 18 22 17.716667 22 17.5 L 22 14.5 C 22 14.283333 22.283333 14 22.5 14 C 22.716667 14 23 14.283333 23 14.5 L 23 15 L 25 15 L 25 14.5 C 25 13.116667 23.883333 12 22.5 12 z M 10 14 C 10.554545 14 11 14.445455 11 15 L 11 17 C 11 17.554545 10.554545 18 10 18 L 10 14 z M 16.5 14 C 16.716667 14 17 14.283333 17 14.5 L 17 17.5 C 17 17.716667 16.716667 18 16.5 18 C 16.283333 18 16 17.716667 16 17.5 L 16 14.5 C 16 14.283333 16.283333 14 16.5 14 z M 6 22 L 6 28 L 6 29 L 7 29 L 25 29 L 26 29 L 26 28 L 26 22 L 24 22 L 24 27 L 8 27 L 8 22 L 6 22 z" color="#000" overflow="visible" enable-background="accumulate" font-family="Bitstream Vera Sans"/>
</svg>