<svg xmlns="http://www.w3.org/2000/svg" viewBox="0 0 32 32" enable-background="new 0 0 32 32">
    <path style="text-indent:0;text-align:start;line-height:normal;text-transform:none;block-progression:tb;-inkscape-font-specification:Bitstream Vera Sans" d="M 6 3 L 6 4 L 6 28 L 6 29 L 7 29 L 16.375 29 L 16.03125 30.8125 L 15.71875 32.28125 L 17.1875 31.96875 L 20.6875 31.28125 L 21 31.21875 L 21.21875 31 L 31.09375 21.09375 C 32.247303 19.940197 32.247303 18.059803 31.09375 16.90625 C 30.516973 16.329473 29.765165 16.03125 29 16.03125 C 28.234835 16.03125 27.483027 16.329473 26.90625 16.90625 L 26 17.8125 L 26 10 L 26 9.59375 L 25.71875 9.28125 L 19.71875 3.28125 L 19.40625 3 L 19 3 L 7 3 L 6 3 z M 8 5 L 18 5 L 18 10 L 18 11 L 19 11 L 24 11 L 24 19.8125 L 17 26.78125 L 16.78125 27 L 8 27 L 8 5 z M 20 6.4375 L 22.5625 9 L 20 9 L 20 6.4375 z M 29 17.96875 C 29.234835 17.96875 29.464277 18.089277 29.6875 18.3125 C 30.133947 18.758947 30.133947 19.241053 29.6875 19.6875 L 20 29.375 L 18.28125 29.71875 L 18.625 28 L 28.25 18.34375 L 28.3125 18.3125 C 28.535723 18.089277 28.765165 17.96875 29 17.96875 z" color="#000" overflow="visible" enable-background="accumulate" font-family="Bitstream Vera Sans"/>
</svg>