<svg xmlns="http://www.w3.org/2000/svg" viewBox="0 0 32 32" enable-background="new 0 0 32 32">
    <path style="text-indent:0;text-align:start;line-height:normal;text-transform:none;block-progression:tb;-inkscape-font-specification:Bitstream Vera Sans" d="M 10.59375 4.1875 C 6.1468807 6.2482443 3 10.797222 3 16 C 3 23.145455 8.8545455 29 16 29 C 23.145455 29 29 23.145455 29 16 C 29 10.797222 25.853119 6.2482443 21.40625 4.1875 L 20.59375 6 C 24.346881 7.7392557 27 11.602778 27 16 C 27 22.054545 22.054545 27 16 27 C 9.9454545 27 5 22.054545 5 16 C 5 11.602778 7.6531193 7.7392557 11.40625 6 L 10.59375 4.1875 z M 16 6.09375 L 15.28125 6.78125 L 10.28125 11.78125 L 11.71875 13.21875 L 15 9.9375 L 15 20 L 17 20 L 17 9.9375 L 20.28125 13.21875 L 21.71875 11.78125 L 16.71875 6.78125 L 16 6.09375 z" color="#000" overflow="visible" enable-background="accumulate" font-family="Bitstream Vera Sans"/>
</svg>