<svg xmlns="http://www.w3.org/2000/svg" viewBox="0 0 32 32" enable-background="new 0 0 32 32">
    <path style="text-indent:0;text-align:start;line-height:normal;text-transform:none;block-progression:tb;-inkscape-font-specification:Bitstream Vera Sans" d="M 4 4 L 4 5 L 4 6 L 3 6 L 1.125 6 L 2.15625 7.5625 L 4 10.3125 L 4 18 L 4 19 L 5 19 L 10 19 L 10 27 L 10 28 L 11 28 L 27 28 L 28 28 L 28 27 L 28 20.3125 L 29.84375 17.5625 L 30.875 16 L 29 16 L 28 16 L 28 15 L 28 14 L 27 14 L 23 14 L 23 5 L 23 4 L 22 4 L 5 4 L 4 4 z M 6 6 L 21 6 L 21 17 L 6 17 L 6 10 L 6 9.6875 L 5.84375 9.4375 L 4.875 8 L 5 8 L 6 8 L 6 7 L 6 6 z M 13 8 C 11.354545 8 10 9.3545455 10 11 C 10 12.645455 11.354545 14 13 14 L 14 14 L 14 16 L 16 16 L 16 9 L 16 8 L 15 8 L 13 8 z M 13 10 L 14 10 L 14 12 L 13 12 C 12.445455 12 12 11.554545 12 11 C 12 10.445455 12.445455 10 13 10 z M 23 16 L 26 16 L 26 17 L 26 18 L 27 18 L 27.125 18 L 26.15625 19.4375 L 26 19.6875 L 26 20 L 26 26 L 12 26 L 12 19 L 17.15625 19 L 15 24 L 17 24 L 17.4375 23 L 20.5625 23 L 21 24 L 23 24 L 20.84375 19 L 22 19 L 23 19 L 23 18 L 23 16 z M 19 19.34375 L 19.71875 21 L 18.28125 21 L 19 19.34375 z" color="#000" overflow="visible" enable-background="accumulate" font-family="Bitstream Vera Sans"/>
</svg>