<svg xmlns="http://www.w3.org/2000/svg" viewBox="0 0 32 32" enable-background="new 0 0 32 32">
    <path style="text-indent:0;text-align:start;line-height:normal;text-transform:none;block-progression:tb;-inkscape-font-specification:Bitstream Vera Sans" d="M 6 3 L 6 4 L 6 28 L 6 29 L 7 29 L 25 29 L 26 29 L 26 28 L 26 10 L 26 9.59375 L 25.71875 9.28125 L 19.71875 3.28125 L 19.40625 3 L 19 3 L 7 3 L 6 3 z M 8 5 L 18 5 L 18 10 L 18 11 L 19 11 L 24 11 L 24 27 L 8 27 L 8 5 z M 20 6.4375 L 22.5625 9 L 20 9 L 20 6.4375 z M 16 12.09375 L 14.3125 16 L 10 16.5 L 13.1875 19.40625 L 12.3125 23.59375 L 16 21.5 L 19.6875 23.59375 L 18.8125 19.40625 L 22 16.5 L 17.6875 16 L 16 12.09375 z M 16 17.09375 L 16.40625 18 L 17.3125 18.09375 L 16.59375 18.6875 L 16.8125 19.59375 L 16 19.09375 L 15.1875 19.59375 L 15.40625 18.6875 L 14.6875 18 L 15.59375 17.90625 L 16 17.09375 z" color="#000" overflow="visible" enable-background="accumulate" font-family="Bitstream Vera Sans"/>
</svg>