<svg xmlns="http://www.w3.org/2000/svg" viewBox="0 0 32 32" enable-background="new 0 0 32 32">
    <path style="text-indent:0;text-align:start;line-height:normal;text-transform:none;block-progression:tb;-inkscape-font-specification:Bitstream Vera Sans" d="M 0 6 L 0 7 L 0 24 L 0 25 L 1 25 L 13 25 C 14.190196 25 15 25.809804 15 27 L 17 27 C 17 25.809804 17.809804 25 19 25 L 31 25 L 32 25 L 32 24 L 32 7 L 32 6 L 31 6 L 19 6 C 17.806008 6 16.732793 6.5146836 16 7.34375 C 15.267207 6.5146836 14.193992 6 13 6 L 1 6 L 0 6 z M 2 8 L 13 8 C 14.190196 8 15 8.8098039 15 10 L 17 10 C 17 8.8098039 17.809804 8 19 8 L 30 8 L 30 23 L 19 23 C 17.806008 23 16.732793 23.514684 16 24.34375 C 15.267207 23.514684 14.193992 23 13 23 L 2 23 L 2 8 z M 7 12 L 7 13 L 7 20 L 9 20 L 9 17 L 11 17 L 11 15 L 9 15 L 9 14 L 12 14 L 12 12 L 8 12 L 7 12 z M 13 12 L 13 13 L 13 19 L 13 20 L 14 20 L 15.5 20 C 16.883333 20 18 18.883333 18 17.5 C 18 16.919095 17.737137 16.423912 17.40625 16 C 17.737137 15.576088 18 15.080905 18 14.5 C 18 13.116667 16.883333 12 15.5 12 L 14 12 L 13 12 z M 21.5 12 C 20.116667 12 19 13.116667 19 14.5 L 19 15 L 21 15 L 21 14.5 C 21 14.283333 21.283333 14 21.5 14 C 21.716667 14 22 14.283333 22 14.5 L 22 15.3125 C 22 15.37917 21.92412 15.544635 21.78125 15.6875 L 19.3125 18.09375 L 19 18.375 L 19 18.8125 L 19 19 L 19 20 L 20 20 L 24 20 L 24 18 L 22.28125 18 L 23.1875 17.125 L 23.21875 17.09375 C 23.675885 16.636615 24 16.045833 24 15.3125 L 24 14.5 C 24 13.116667 22.883333 12 21.5 12 z M 15 14 L 15.5 14 C 15.716667 14 16 14.283333 16 14.5 C 16 14.716667 15.716667 15 15.5 15 L 15 15 L 15 14 z M 15 17 L 15.5 17 C 15.716667 17 16 17.283333 16 17.5 C 16 17.716667 15.716667 18 15.5 18 L 15 18 L 15 17 z" color="#000" overflow="visible" enable-background="accumulate" font-family="Bitstream Vera Sans"/>
</svg>