<svg xmlns="http://www.w3.org/2000/svg" viewBox="0 0 32 32" enable-background="new 0 0 32 32">
    <path style="text-indent:0;text-align:start;line-height:normal;text-transform:none;block-progression:tb;-inkscape-font-specification:Bitstream Vera Sans" d="M 16 1.8125 L 15.4375 2.15625 L 3.4375 10.15625 L 3 10.46875 L 3 11 L 3 27 L 3 28 L 4 28 L 28 28 L 29 28 L 29 27 L 29 11 L 29 10.46875 L 28.5625 10.15625 L 16.5625 2.15625 L 16 1.8125 z M 16 4.21875 L 26.25 11.0625 L 17 18 L 17 10.9375 L 19.28125 13.21875 L 20.71875 11.78125 L 16.71875 7.78125 L 16 7.09375 L 15.28125 7.78125 L 11.28125 11.78125 L 12.71875 13.21875 L 15 10.9375 L 15 18 L 5.75 11.0625 L 16 4.21875 z M 5 13 L 15.40625 20.8125 L 16 21.25 L 16.59375 20.8125 L 27 13 L 27 26 L 5 26 L 5 13 z" color="#000" overflow="visible" enable-background="accumulate" font-family="Bitstream Vera Sans"/>
</svg>