<svg xmlns="http://www.w3.org/2000/svg" viewBox="0 0 32 32" enable-background="new 0 0 32 32">
    <path style="text-indent:0;text-align:start;line-height:normal;text-transform:none;block-progression:tb;-inkscape-font-specification:Bitstream Vera Sans" d="M 2 5 L 2 6 L 2 26 L 2 27 L 3 27 L 29 27 L 30 27 L 30 26 L 30 6 L 30 5 L 29 5 L 3 5 L 2 5 z M 4 7 L 28 7 L 28 25 L 4 25 L 4 7 z M 6 9 L 6 10 L 6 22 L 6 23 L 7 23 L 25 23 L 26 23 L 26 22 L 26 10 L 26 9 L 25 9 L 7 9 L 6 9 z M 8 11 L 24 11 L 24 21 L 8 21 L 8 11 z" color="#000" overflow="visible" enable-background="accumulate" font-family="Bitstream Vera Sans"/>
</svg>