<svg xmlns="http://www.w3.org/2000/svg" viewBox="0 0 32 32" enable-background="new 0 0 32 32">
    <path style="text-indent:0;text-align:start;line-height:normal;text-transform:none;block-progression:tb;-inkscape-font-specification:Bitstream Vera Sans" d="M 0 7 L 0 8 L 0 24 L 0 25 L 1 25 L 31 25 L 32 25 L 32 24 L 32 8 L 32 7 L 31 7 L 1 7 L 0 7 z M 2 9 L 30 9 L 30 23 L 2 23 L 2 9 z M 5 12 L 5 20 L 7 20 L 7 17 L 8 17 L 8 20 L 10 20 L 10 12 L 8 12 L 8 15 L 7 15 L 7 12 L 5 12 z M 11 12 L 11 14 L 12 14 L 12 20 L 14 20 L 14 14 L 15 14 L 15 12 L 11 12 z M 16 12 L 16 13 L 16 20 L 18 20 L 18 15.34375 L 18.1875 15.59375 L 19 16.65625 L 19.8125 15.59375 L 20 15.34375 L 20 20 L 22 20 L 22 13 L 22 12 L 21 12 L 20.5 12 L 20 12 L 19.6875 12.40625 L 19 13.3125 L 18.3125 12.40625 L 18 12 L 17.5 12 L 17 12 L 16 12 z M 23 12 L 23 19 L 23 20 L 24 20 L 27 20 L 27 18 L 25 18 L 25 12 L 23 12 z"/>
</svg>