<svg xmlns="http://www.w3.org/2000/svg" viewBox="0 0 32 32" enable-background="new 0 0 32 32">
    <path style="text-indent:0;text-align:start;line-height:normal;text-transform:none;block-progression:tb;-inkscape-font-specification:Bitstream Vera Sans" d="M 0 6 L 0 8 L 19 8 L 19 10 L 19 11 L 19 23 L 12.84375 23 C 12.396684 21.280158 10.853198 20 9 20 C 7.1468019 20 5.6033156 21.280158 5.15625 23 L 4 23 L 4 18 L 2 18 L 2 24 L 2 25 L 3 25 L 5.15625 25 C 5.6033156 26.719842 7.1468019 28 9 28 C 10.853198 28 12.396684 26.719842 12.84375 25 L 19 25 L 20 25 L 21 25 L 21.15625 25 C 21.603316 26.719842 23.146802 28 25 28 C 26.853198 28 28.396684 26.719842 28.84375 25 L 31 25 L 32 25 L 32 24 L 32 17 L 32 16.84375 L 31.9375 16.6875 L 29.9375 10.6875 L 29.71875 10 L 29 10 L 21 10 L 21 7 L 21 6 L 20 6 L 0 6 z M 1 10 L 1 12 L 10 12 L 10 10 L 1 10 z M 21 12 L 28.28125 12 L 30 17.125 L 30 23 L 28.84375 23 C 28.396684 21.280158 26.853198 20 25 20 C 23.146802 20 21.603316 21.280158 21.15625 23 L 21 23 L 21 12 z M 2 14 L 2 16 L 8 16 L 8 14 L 2 14 z M 9 22 C 10.116414 22 11 22.883586 11 24 C 11 25.116414 10.116414 26 9 26 C 7.883586 26 7 25.116414 7 24 C 7 22.883586 7.883586 22 9 22 z M 25 22 C 26.116414 22 27 22.883586 27 24 C 27 25.116414 26.116414 26 25 26 C 23.883586 26 23 25.116414 23 24 C 23 22.883586 23.883586 22 25 22 z"/>
</svg>