<svg xmlns="http://www.w3.org/2000/svg" viewBox="0 0 32 32" enable-background="new 0 0 32 32">
    <path style="text-indent:0;text-align:start;line-height:normal;text-transform:none;block-progression:tb;-inkscape-font-specification:Bitstream Vera Sans" d="M 16 2 C 14.74096 2 13.84816 2.8903886 13.40625 4 L 11 4 L 6 4 L 5 4 L 5 5 L 5 28 L 5 29 L 6 29 L 26 29 L 27 29 L 27 28 L 27 5 L 27 4 L 26 4 L 21 4 L 18.59375 4 C 18.15184 2.8903886 17.25904 2 16 2 z M 16 4 C 16.554545 4 17 4.4454545 17 5 L 17 6 L 18 6 L 20 6 L 20 8 L 12 8 L 12 6 L 14 6 L 15 6 L 15 5 C 15 4.4454545 15.445455 4 16 4 z M 7 6 L 10 6 L 10 9 L 10 10 L 11 10 L 21 10 L 22 10 L 22 9 L 22 6 L 25 6 L 25 27 L 7 27 L 7 6 z M 21.28125 13.28125 L 15 19.5625 L 11.71875 16.28125 L 10.28125 17.71875 L 14.28125 21.71875 L 15 22.40625 L 15.71875 21.71875 L 22.71875 14.71875 L 21.28125 13.28125 z" color="#000" overflow="visible" enable-background="accumulate" font-family="Bitstream Vera Sans"/>
</svg>