<svg xmlns="http://www.w3.org/2000/svg" viewBox="0 0 32 32" enable-background="new 0 0 32 32">
    <path d="M 6 3 L 6 29 L 19.8125 29 L 20 28 L 18.90625 27 L 8 27 L 8 5 L 18 5 L 18 10 L 18 11 L 19 11 L 24 11 L 24 18 L 25 16 L 26 18 L 26 9.59375 L 19.40625 3 L 6 3 z M 20 6.40625 L 22.59375 9 L 20 9 L 20 6.40625 z M 25 18.6875 L 23 23.3125 L 18 23.8125 L 21.6875 27.09375 L 20.6875 32 L 25 29.5 L 29.3125 32 L 28.3125 27.09375 L 32 23.8125 L 27 23.3125 L 25 18.6875 z M 25 23.59375 L 25.1875 24 L 25.6875 25.09375 L 26.90625 25.1875 L 27.40625 25.3125 L 27 25.59375 L 26.09375 26.40625 L 26.3125 27.5 L 26.40625 28 L 26 27.8125 L 25 27.1875 L 24 27.8125 L 23.59375 28 L 23.6875 27.5 L 23.90625 26.40625 L 23 25.59375 L 22.59375 25.3125 L 23.09375 25.1875 L 24.3125 25.09375 L 24.8125 24 L 25 23.59375 z"/>
</svg>