<svg xmlns="http://www.w3.org/2000/svg" viewBox="0 0 32 32" enable-background="new 0 0 32 32">
    <path style="text-indent:0;text-align:start;line-height:normal;text-transform:none;block-progression:tb;-inkscape-font-specification:Bitstream Vera Sans" d="M 8 3 L 8 4 L 8 7.15625 L 3.4375 10.15625 L 3 10.46875 L 3 11 L 3 27 L 3 28 L 4 28 L 28 28 L 29 28 L 29 27 L 29 11 L 29 10.46875 L 28.5625 10.15625 L 24 7.15625 L 24 4 L 24 3 L 23 3 L 9 3 L 8 3 z M 11.90625 5 L 20.09375 5 C 20.040108 5.154319 20 5.327411 20 5.5 C 20 6.3284271 20.671573 7 21.5 7 C 21.672589 7 21.845681 6.959892 22 6.90625 L 22 14.25 L 19.8125 15.875 C 19.325888 14.214541 17.818227 13 16 13 C 14.181773 13 12.674112 14.214541 12.1875 15.875 L 10 14.25 L 10 6.90625 C 10.154319 6.959892 10.327411 7 10.5 7 C 11.328427 7 12 6.3284271 12 5.5 C 12 5.327411 11.959892 5.154319 11.90625 5 z M 16 8.5 C 15.171573 8.5 14.5 9.1715729 14.5 10 C 14.5 10.828427 15.171573 11.5 16 11.5 C 16.828427 11.5 17.5 10.828427 17.5 10 C 17.5 9.1715729 16.828427 8.5 16 8.5 z M 8 9.5625 L 8 12.75 L 5.75 11.0625 L 8 9.5625 z M 24 9.5625 L 26.25 11.0625 L 24 12.75 L 24 9.5625 z M 5 13 L 15.40625 20.8125 L 16 21.25 L 16.59375 20.8125 L 27 13 L 27 26 L 5 26 L 5 13 z M 16 15 C 17.190196 15 18 15.809804 18 17 L 18 17.25 L 16 18.75 L 14 17.25 L 14 17 C 14 15.809804 14.809804 15 16 15 z" color="#000" overflow="visible" enable-background="accumulate" font-family="Bitstream Vera Sans"/>
</svg>