<svg xmlns="http://www.w3.org/2000/svg" viewBox="0 0 32 32" enable-background="new 0 0 32 32">
    <path style="text-indent:0;text-align:start;line-height:normal;text-transform:none;block-progression:tb;-inkscape-font-specification:Bitstream Vera Sans" d="M 8 4 L 8 5 L 4 5 L 3 5 L 3 6 L 3 10 L 3 11 L 3 26 L 3 27 L 4 27 L 28 27 L 29 27 L 29 26 L 29 10 L 29 9 L 29 6 L 29 5 L 28 5 L 24 5 L 24 4 L 22 4 L 22 5 L 10 5 L 10 4 L 8 4 z M 5 7 L 8 7 L 8 8 L 10 8 L 10 7 L 22 7 L 22 8 L 24 8 L 24 7 L 27 7 L 27 9 L 5 9 L 5 7 z M 5 11 L 27 11 L 27 25 L 5 25 L 5 11 z M 17 14 L 17 15 L 17 21 L 17 22 L 18 22 L 24 22 L 25 22 L 25 21 L 25 15 L 25 14 L 24 14 L 18 14 L 17 14 z M 8 15 L 8 17 L 10 17 L 10 15 L 8 15 z M 12 15 L 12 17 L 14 17 L 14 15 L 12 15 z M 19 16 L 23 16 L 23 20 L 19 20 L 19 16 z M 8 19 L 8 21 L 10 21 L 10 19 L 8 19 z M 12 19 L 12 21 L 14 21 L 14 19 L 12 19 z"/>
</svg>