<svg xmlns="http://www.w3.org/2000/svg" viewBox="0 0 32 32" enable-background="new 0 0 32 32">
    <path style="text-indent:0;text-align:start;line-height:normal;text-transform:none;block-progression:tb;-inkscape-font-specification:Bitstream Vera Sans" d="M 25 5 C 23.895431 5 23 5.8954305 23 7 C 23 7.7396043 23.403104 8.3727074 24 8.71875 L 24 11 L 26 11 L 26 8.71875 C 26.596896 8.3727074 27 7.7396043 27 7 C 27 5.8954305 26.104569 5 25 5 z M 4 12 L 4 14 L 6.40625 14 L 8 18 L 10 18 L 10 27 L 12 27 L 12 18 L 20 18 L 20 27 L 22 27 L 22 18 L 24 18 L 25.59375 14 L 28 14 L 28 12 L 4 12 z M 8.40625 14 L 23.59375 14 L 22.8125 16 L 21 16 L 20 16 L 12 16 L 11 16 L 9.1875 16 L 8.40625 14 z"/>
</svg>