<svg xmlns="http://www.w3.org/2000/svg" viewBox="0 0 32 32" enable-background="new 0 0 32 32">
    <path style="text-indent:0;text-align:start;line-height:normal;text-transform:none;block-progression:tb;-inkscape-font-specification:Bitstream Vera Sans" d="M 16 3 C 12.154545 3 9 6.1545455 9 10 L 9 13 L 7 13 L 6 13 L 6 14 L 6 28 L 6 29 L 7 29 L 25 29 L 26 29 L 26 28 L 26 14 L 26 13 L 25 13 L 23 13 L 23 10 C 23 6.1545455 19.845455 3 16 3 z M 16 5 C 18.754545 5 21 7.2454545 21 10 L 21 13 L 11 13 L 11 10 C 11 7.2454545 13.245455 5 16 5 z M 8 15 L 24 15 L 24 27 L 8 27 L 8 15 z M 16 16 C 13.250421 16 11 18.250421 11 21 C 11 23.749579 13.250421 26 16 26 C 18.749579 26 21 23.749579 21 21 C 21 18.250421 18.749579 16 16 16 z M 16 18 C 17.668699 18 19 19.331301 19 21 C 19 22.668699 17.668699 24 16 24 C 14.331301 24 13 22.668699 13 21 C 13 19.331301 14.331301 18 16 18 z M 16 19 C 14.9 19 14 19.9 14 21 C 14 22.1 14.9 23 16 23 C 17.1 23 18 22.1 18 21 C 18 20.8 18.00625 20.60625 17.90625 20.40625 C 17.70625 20.80625 17.4 21 17 21 C 16.4 21 16 20.6 16 20 C 16 19.6 16.19375 19.29375 16.59375 19.09375 C 16.39375 18.99375 16.2 19 16 19 z" color="#000" overflow="visible" enable-background="accumulate" font-family="Bitstream Vera Sans"/>
</svg>