<svg xmlns="http://www.w3.org/2000/svg" viewBox="0 0 32 32" enable-background="new 0 0 32 32">
    <path d="M 16 4 C 14.8 4 13.6 4.2 12.5 4.5 L 14.3125 6.1875 C 14.9125 6.0875 15.4 6 16 6 C 18.823043 6 21.319856 7.1826671 23.125 9 L 20 9 L 20 11 L 25 11 L 26 11 L 26 10 L 26 5 L 24 5 L 24 7.0625 C 21.873853 5.1562105 19.096674 4 16 4 z M 5 6 L 5 8 L 7.125 8 C 5.2169776 10.118823 4 12.89124 4 16 C 4 17.1 4.20625 18.1875 4.40625 19.1875 L 6.09375 17.5 C 5.99375 17 6 16.5 6 16 C 6 13.18532 7.1804899 10.720675 9 8.875 L 9 12 L 11 12 L 11 7 L 11 6 L 10 6 L 5 6 z M 27.5 12.8125 L 25.90625 14.59375 C 26.00625 15.09375 26 15.5 26 16 C 26 18.812357 24.842335 21.304344 23 23.125 L 23 20 L 21 20 L 21 25 L 21 26 L 22 26 L 27 26 L 27 24 L 24.96875 24 C 26.88125 21.867188 28 19.075 28 16 C 28 14.9 27.8 13.8125 27.5 12.8125 z M 6 21 L 6 22 L 6 27 L 8 27 L 8 24.875 C 10.125405 26.805148 12.90625 28 16 28 C 17 28 18.00625 27.89375 18.90625 27.59375 L 17 26 L 16 26 C 13.176957 26 10.680144 24.817333 8.875 23 L 12 23 L 12 21 L 7 21 L 6 21 z"/>
</svg>