<svg xmlns="http://www.w3.org/2000/svg" viewBox="0 0 32 32" enable-background="new 0 0 32 32">
    <path style="text-indent:0;text-align:start;line-height:normal;text-transform:none;block-progression:tb;-inkscape-font-specification:Bitstream Vera Sans" d="M 0 8 L 0 9 L 0 23 L 0 24 L 1 24 L 31 24 L 32 24 L 32 23 L 32 9 L 32 8 L 31 8 L 1 8 L 0 8 z M 2 10 L 5 10 L 5 17 L 7 17 L 7 10 L 9 10 L 9 14 L 11 14 L 11 10 L 13 10 L 13 17 L 15 17 L 15 10 L 17 10 L 17 14 L 19 14 L 19 10 L 21 10 L 21 17 L 23 17 L 23 10 L 25 10 L 25 14 L 27 14 L 27 10 L 30 10 L 30 22 L 2 22 L 2 10 z"/>
</svg>