<svg xmlns="http://www.w3.org/2000/svg" viewBox="0 0 32 32" enable-background="new 0 0 32 32">
    <path style="text-indent:0;text-align:start;line-height:normal;text-transform:none;block-progression:tb;-inkscape-font-specification:Bitstream Vera Sans" d="M 6 3 L 6 4 L 6 28 L 6 29 L 7 29 L 18 29 L 18 31 L 18 32 L 19 32 L 31 32 L 32 32 L 32 31 L 32 19 L 32 18 L 31 18 L 26 18 L 26 4 L 26 3 L 25 3 L 7 3 L 6 3 z M 8 5 L 15 5 L 15 6 L 17 6 L 17 5 L 24 5 L 24 18 L 23 18 L 22.59375 18 L 22.28125 18.28125 L 18.28125 22.28125 L 18 22.59375 L 18 23 L 18 27 L 8 27 L 8 5 z M 15 7 L 15 9 L 17 9 L 17 7 L 15 7 z M 15 10 L 15 12 L 17 12 L 17 10 L 15 10 z M 15 13 L 15 15.1875 C 13.844255 15.605718 13 16.707982 13 18 C 13 19.64501 14.35499 21 16 21 C 17.64501 21 19 19.64501 19 18 C 19 16.707982 18.155745 15.605718 17 15.1875 L 17 13 L 15 13 z M 16 17 C 16.564128 17 17 17.435872 17 18 C 17 18.564128 16.564128 19 16 19 C 15.435872 19 15 18.564128 15 18 C 15 17.435872 15.435872 17 16 17 z M 23.4375 20 L 30 20 L 30 30 L 20 30 L 20 23.4375 L 23.4375 20 z M 24 21 L 24 23 L 28 23 L 28 21 L 24 21 z M 25 25 C 23.895431 25 23 25.895431 23 27 C 23 28.104569 23.895431 29 25 29 C 26.104569 29 27 28.104569 27 27 C 27 25.895431 26.104569 25 25 25 z"/>
</svg>