<svg xmlns="http://www.w3.org/2000/svg" viewBox="0 0 32 32" enable-background="new 0 0 32 32">
    <path style="text-indent:0;text-align:start;line-height:normal;text-transform:none;block-progression:tb;-inkscape-font-specification:Bitstream Vera Sans" d="M 4 4 L 4 5 L 4 27 L 4 28 L 5 28 L 27 28 L 28 28 L 28 27 L 28 5 L 28 4 L 27 4 L 5 4 L 4 4 z M 6 6 L 26 6 L 26 18 L 6 18 L 6 6 z M 6 20 L 26 20 L 26 26 L 6 26 L 6 20 z M 8 22 L 8 24 L 9.78125 24 C 10.128312 24.596878 10.763455 25 11.5 25 C 12.236545 25 12.871688 24.596878 13.21875 24 L 15 24 L 15 22 L 8 22 z M 17 22 L 17 24 L 24 24 L 24 22 L 17 22 z" color="#000" overflow="visible" enable-background="accumulate" font-family="Bitstream Vera Sans"/>
</svg>