<svg xmlns="http://www.w3.org/2000/svg" viewBox="0 0 32 32" enable-background="new 0 0 32 32">
    <path style="text-indent:0;text-align:start;line-height:normal;text-transform:none;block-progression:tb;-inkscape-font-specification:Bitstream Vera Sans" d="M 2 5 L 2 6 L 2 12 L 2 13 L 3 13 L 9 13 L 10 13 L 10 12 L 10 10 L 12 10 L 12 12 L 12 13 L 13 13 L 19 13 L 20 13 L 20 12 L 20 10 L 25 10 L 25 12 L 23 12 L 22 12 L 22 13 L 22 19 L 22 20 L 23 20 L 25 20 L 25 22 L 20 22 L 20 20 L 20 19 L 19 19 L 13 19 L 12 19 L 12 20 L 12 22 L 10 22 L 10 20 L 10 19 L 9 19 L 3 19 L 2 19 L 2 20 L 2 26 L 2 27 L 3 27 L 9 27 L 10 27 L 10 26 L 10 24 L 12 24 L 12 26 L 12 27 L 13 27 L 19 27 L 20 27 L 20 26 L 20 24 L 26 24 L 27 24 L 27 23 L 27 20 L 29 20 L 30 20 L 30 19 L 30 13 L 30 12 L 29 12 L 27 12 L 27 9 L 27 8 L 26 8 L 20 8 L 20 6 L 20 5 L 19 5 L 13 5 L 12 5 L 12 6 L 12 8 L 10 8 L 10 6 L 10 5 L 9 5 L 3 5 L 2 5 z M 4 7 L 8 7 L 8 11 L 4 11 L 4 7 z M 14 7 L 18 7 L 18 11 L 14 11 L 14 7 z M 24 14 L 28 14 L 28 18 L 24 18 L 24 14 z M 4 21 L 8 21 L 8 25 L 4 25 L 4 21 z M 14 21 L 18 21 L 18 25 L 14 25 L 14 21 z"/>
</svg>