<svg xmlns="http://www.w3.org/2000/svg" viewBox="0 0 32 32" enable-background="new 0 0 32 32">
    <path style="text-indent:0;text-align:start;line-height:normal;text-transform:none;block-progression:tb;-inkscape-font-specification:Bitstream Vera Sans" d="M 7 8 C 4.7901961 8 3 9.7901961 3 12 C 3 14.209804 4.7901961 16 7 16 L 9 16 C 10.190196 16 11 16.809804 11 18 L 11 19 C 11 20.190196 10.190196 21 9 21 L 5 21 L 5 19 L 3 19 L 3 22 L 3 23 L 4 23 L 9 23 C 11.209804 23 13 21.209804 13 19 L 13 18 C 13 15.790196 11.209804 14 9 14 L 7 14 C 5.8098039 14 5 13.190196 5 12 C 5 10.809804 5.8098039 10 7 10 L 10 10 L 10 11 L 12 11 L 12 9 L 12 8 L 11 8 L 7 8 z M 15 8 L 15 9 L 15 23 L 17 23 L 17 10.875 L 21.15625 17.53125 L 22 18.875 L 22.84375 17.53125 L 27 10.875 L 27 23 L 29 23 L 29 9 L 29 8 L 28 8 L 27 8 L 26.4375 8 L 26.15625 8.46875 L 22 15.125 L 17.84375 8.46875 L 17.5625 8 L 17 8 L 16 8 L 15 8 z" color="#000" overflow="visible" enable-background="accumulate" font-family="Bitstream Vera Sans"/>
</svg>