<svg xmlns="http://www.w3.org/2000/svg" viewBox="0 0 32 32" enable-background="new 0 0 32 32">
    <path style="text-indent:0;text-align:start;line-height:normal;text-transform:none;block-progression:tb;-inkscape-font-specification:Bitstream Vera Sans" d="M 0 6 L 0 7 L 0 24 L 0 25 L 1 25 L 4.15625 25 C 4.6033156 26.719842 6.1468019 28 8 28 C 9.8531978 28 11.396684 26.719842 11.84375 25 L 20 25 L 21.15625 25 C 21.603316 26.719842 23.146802 28 25 28 C 26.853198 28 28.396684 26.719842 28.84375 25 L 31 25 L 32 25 L 32 24 L 32 17 L 32 16.84375 L 31.9375 16.6875 L 29.9375 10.6875 L 29.71875 10 L 29 10 L 21 10 L 21 7 L 21 6 L 20 6 L 1 6 L 0 6 z M 2 8 L 19 8 L 19 10 L 19 11 L 19 23 L 11.84375 23 C 11.396684 21.280158 9.8531978 20 8 20 C 6.1468019 20 4.6033156 21.280158 4.15625 23 L 2 23 L 2 8 z M 15.28125 10.28125 L 10 15.5625 L 6.71875 12.28125 L 5.28125 13.71875 L 9.28125 17.71875 L 10 18.40625 L 10.71875 17.71875 L 16.71875 11.71875 L 15.28125 10.28125 z M 21 12 L 28.28125 12 L 30 17.125 L 30 23 L 28.84375 23 C 28.396684 21.280158 26.853198 20 25 20 C 23.146802 20 21.603316 21.280158 21.15625 23 L 21 23 L 21 12 z M 8 22 C 9.116414 22 10 22.883586 10 24 C 10 25.116414 9.116414 26 8 26 C 6.883586 26 6 25.116414 6 24 C 6 22.883586 6.883586 22 8 22 z M 25 22 C 26.116414 22 27 22.883586 27 24 C 27 25.116414 26.116414 26 25 26 C 23.883586 26 23 25.116414 23 24 C 23 22.883586 23.883586 22 25 22 z" color="#000" overflow="visible" enable-background="accumulate" font-family="Bitstream Vera Sans"/>
</svg>