<svg xmlns="http://www.w3.org/2000/svg" viewBox="0 0 32 32" enable-background="new 0 0 32 32">
    <path style="text-indent:0;text-align:start;line-height:normal;text-transform:none;block-progression:tb;-inkscape-font-specification:Bitstream Vera Sans" d="M 9.3125 4 C 8.5583333 4 7.9060358 4.3668092 7.3125 4.875 C 6.7189642 5.3831908 6.1723425 6.0647834 5.6875 6.9375 C 4.7178149 8.6829332 4 11.132328 4 14.1875 C 4 15.754167 4.3614992 17.367489 5.09375 18.65625 C 5.2527636 18.936114 5.5162144 19.12469 5.71875 19.375 C 5.1743289 20.040027 4.28125 21.28125 4.28125 21.28125 L 5.71875 22.71875 C 5.71875 22.71875 6.7102974 21.350812 7.34375 20.59375 C 7.7467081 20.765416 8.1238533 21 8.59375 21 C 10.309681 21 12.096042 20.248528 13.75 19.3125 C 14.281434 19.717995 14.879098 20 15.5 20 C 17.55404 20 19.118121 18.792534 20.21875 17.71875 C 20.53766 17.407619 20.7531 17.177343 21 16.90625 C 20.9967 17.17804 20.98774 17.429611 21.0625 17.75 C 21.11926 17.993243 21.185603 18.29398 21.4375 18.5625 C 21.689397 18.83102 22.135227 19 22.5 19 C 23.229545 19 23.65385 18.663032 24.09375 18.34375 C 24.53365 18.024468 24.951341 17.640389 25.40625 17.28125 C 26.316068 16.562972 27.284783 16 28 16 L 28 14 C 26.415217 14 25.177682 14.937028 24.1875 15.71875 C 23.719131 16.088515 23.296103 16.413238 22.96875 16.65625 C 22.969374 16.60071 22.96685 16.58938 22.96875 16.53125 C 22.98088 16.167343 23.03358 15.761318 22.96875 15.3125 C 22.93633 15.088091 22.864572 14.856108 22.65625 14.5625 C 22.447928 14.268892 21.984028 14 21.59375 14 C 21.03006 14 20.822407 14.241253 20.625 14.40625 C 20.427593 14.571247 20.277352 14.739011 20.09375 14.9375 C 19.726545 15.334478 19.287186 15.818142 18.8125 16.28125 C 17.972151 17.101103 16.985042 17.722105 15.90625 17.875 C 16.621764 17.302694 17.338429 16.73013 17.84375 16.09375 C 18.506097 15.259617 19 14.404583 19 13.40625 C 19 12.845139 18.931223 12.074954 18.5 11.34375 C 18.068777 10.612546 17.144118 10 16 10 C 14.769298 10 13.646621 10.60356 12.96875 11.5625 C 12.290879 12.52144 12 13.746474 12 15.1875 C 12 16.168021 12.221024 16.982277 12.53125 17.6875 C 11.140222 18.419443 9.6997006 19 8.59375 19 C 10.285685 16.463099 12 13.011744 12 8.8125 C 12 7.9428922 12.007659 6.9157282 11.71875 5.96875 C 11.574296 5.4952609 11.345208 5.0136812 10.9375 4.625 C 10.529792 4.2363188 9.93125 4 9.3125 4 z M 9.3125 6 C 9.49375 6 9.5014575 6.035556 9.5625 6.09375 C 9.623542 6.151944 9.7007043 6.2984891 9.78125 6.5625 C 9.9423414 7.0905218 10 7.9821078 10 8.8125 C 10 12.354421 8.4832275 15.457026 6.96875 17.78125 C 6.933229 17.72423 6.878601 17.71759 6.84375 17.65625 C 6.3260008 16.745011 6 15.420833 6 14.1875 C 6 11.442672 6.6571851 9.3108168 7.4375 7.90625 C 7.8276575 7.2039666 8.2310358 6.6855592 8.59375 6.375 C 8.9564642 6.0644408 9.2666667 6 9.3125 6 z M 16 12 C 16.555882 12 16.637473 12.131204 16.78125 12.375 C 16.925027 12.618796 17 13.067361 17 13.40625 C 17 13.657917 16.787653 14.237258 16.28125 14.875 C 15.841108 15.429297 15.169172 16.005314 14.4375 16.5625 C 14.262231 16.15969 14 15.866812 14 15.1875 C 14 14.028526 14.246621 13.17856 14.59375 12.6875 C 14.940879 12.19644 15.330702 12 16 12 z M 4 26 L 4 28 L 28 28 L 28 26 L 4 26 z" color="#000" overflow="visible" enable-background="accumulate" font-family="Bitstream Vera Sans"/>
</svg>