<svg xmlns="http://www.w3.org/2000/svg" viewBox="0 0 32 32" enable-background="new 0 0 32 32">
    <path style="text-indent:0;text-align:start;line-height:normal;text-transform:none;block-progression:tb;-inkscape-font-specification:Bitstream Vera Sans" d="M 16 2.59375 L 15.28125 3.28125 L 10.28125 8.28125 L 11.71875 9.71875 L 15 6.4375 L 15 13 L 0 13 L 0 15 L 32 15 L 32 13 L 17 13 L 17 6.4375 L 20.28125 9.71875 L 21.71875 8.28125 L 16.71875 3.28125 L 16 2.59375 z M 0 17 L 0 19 L 15 19 L 15 25.5625 L 11.71875 22.28125 L 10.28125 23.71875 L 15.28125 28.71875 L 16 29.40625 L 16.71875 28.71875 L 21.71875 23.71875 L 20.28125 22.28125 L 17 25.5625 L 17 19 L 32 19 L 32 17 L 0 17 z"/>
</svg>