<svg xmlns="http://www.w3.org/2000/svg" viewBox="0 0 32 32" enable-background="new 0 0 32 32">
    <path style="text-indent:0;text-align:start;line-height:normal;text-transform:none;block-progression:tb;-inkscape-font-specification:Bitstream Vera Sans" d="M 15 4 L 15 5 L 5 5 L 4 5 L 4 6 L 4 22 L 4 23 L 5 23 L 27 23 L 28 23 L 28 22 L 28 6 L 28 5 L 27 5 L 17 5 L 17 4 L 15 4 z M 6 7 L 26 7 L 26 21 L 6 21 L 6 7 z M 21 9.59375 L 20.28125 10.28125 L 16 14.5625 L 12.71875 11.28125 L 12 10.59375 L 11.28125 11.28125 L 8.28125 14.28125 L 9.71875 15.71875 L 12 13.4375 L 15.28125 16.71875 L 16 17.40625 L 16.71875 16.71875 L 21 12.4375 L 22.28125 13.71875 L 23.71875 12.28125 L 21.71875 10.28125 L 21 9.59375 z M 13 24 L 11 28 L 13 28 L 15 24 L 13 24 z M 17 24 L 19 28 L 21 28 L 19 24 L 17 24 z" color="#000" overflow="visible" enable-background="accumulate" font-family="Bitstream Vera Sans"/>
</svg>