<svg xmlns="http://www.w3.org/2000/svg" viewBox="0 0 32 32" enable-background="new 0 0 32 32">
    <path style="text-indent:0;text-align:start;line-height:normal;text-transform:none;block-progression:tb;-inkscape-font-specification:Bitstream Vera Sans" d="M 16 2 C 14.74096 2 13.84816 2.8903886 13.40625 4 L 11 4 L 6 4 L 5 4 L 5 5 L 5 28 L 5 29 L 6 29 L 26 29 L 27 29 L 27 28 L 27 5 L 27 4 L 26 4 L 21 4 L 18.59375 4 C 18.15184 2.8903886 17.25904 2 16 2 z M 16 4 C 16.554545 4 17 4.4454545 17 5 L 17 6 L 18 6 L 20 6 L 20 8 L 12 8 L 12 6 L 14 6 L 15 6 L 15 5 C 15 4.4454545 15.445455 4 16 4 z M 7 6 L 10 6 L 10 9 L 10 10 L 11 10 L 21 10 L 22 10 L 22 9 L 22 6 L 25 6 L 25 27 L 7 27 L 7 6 z M 9 12 L 9 13 L 9 16 L 9 17 L 10 17 L 13 17 L 14 17 L 14 16 L 14 13 L 14 12 L 13 12 L 10 12 L 9 12 z M 16 13 L 16 15 L 23 15 L 23 13 L 16 13 z M 11 14 L 12 14 L 12 15 L 11 15 L 11 14 z M 9 19 L 9 24 L 14 24 L 14 19 L 9 19 z M 16 20 L 16 22 L 23 22 L 23 20 L 16 20 z" color="#000" overflow="visible" enable-background="accumulate" font-family="Bitstream Vera Sans"/>
</svg>