<svg xmlns="http://www.w3.org/2000/svg" viewBox="0 0 32 32" enable-background="new 0 0 32 32">
    <path d="M 15.5 2.09375 L 14.09375 3.5 L 16.59375 6.03125 C 16.394162 6.0202047 16.203519 6 16 6 C 10.5 6 6 10.5 6 16 C 6 17.5 6.30625 18.89375 6.90625 20.09375 L 8.40625 18.59375 C 8.20625 17.79375 8 16.9 8 16 C 8 11.6 11.6 8 16 8 C 16.173969 8 16.358003 8.0177487 16.53125 8.03125 L 14.09375 10.5 L 15.5 11.90625 L 19.71875 7.71875 L 20.40625 7 L 19.71875 6.28125 L 15.5 2.09375 z M 25.09375 11.90625 L 23.59375 13.40625 C 23.89375 14.20625 24 15.1 24 16 C 24 20.4 20.4 24 16 24 C 15.826031 24 15.641997 23.982251 15.46875 23.96875 L 17.90625 21.5 L 16.5 20.09375 L 12.28125 24.28125 L 11.59375 25 L 12.28125 25.71875 L 16.5 29.90625 L 17.90625 28.5 L 15.40625 25.96875 C 15.601495 25.980452 15.804483 26 16 26 C 21.5 26 26 21.5 26 16 C 26 14.5 25.69375 13.10625 25.09375 11.90625 z"/>
</svg>