<svg xmlns="http://www.w3.org/2000/svg" viewBox="0 0 32 32" enable-background="new 0 0 32 32">
    <path style="text-indent:0;text-align:start;line-height:normal;text-transform:none;block-progression:tb;-inkscape-font-specification:Bitstream Vera Sans" d="M 2 9 L 2 9.40625 L 2 9.53125 L 2.03125 9.6875 L 6.03125 23.28125 L 6.25 24 L 7 24 L 8 24 L 8.75 24 L 8.96875 23.28125 L 12.96875 9.6875 L 13 9.53125 L 13 9.40625 L 13 9 L 11 9 L 11 9.21875 L 7.5 21.125 L 4 9.21875 L 4 9 L 2 9 z M 15 9 L 15 24 L 17 24 L 17 9 L 15 9 z M 20 9 L 20 10 L 20 17 L 20 18 L 20 24 L 22 24 L 22 18 L 25.5 18 C 27.961404 18 30 15.961404 30 13.5 C 30 11.038596 27.961404 9 25.5 9 L 22 9 L 20 9 z M 22 11 L 25.5 11 C 26.838596 11 28 12.161404 28 13.5 C 28 14.838596 26.838596 16 25.5 16 L 22 16 L 22 11 z" color="#000" overflow="visible" enable-background="accumulate" font-family="Bitstream Vera Sans"/>
</svg>