<svg xmlns="http://www.w3.org/2000/svg" viewBox="0 0 32 32" enable-background="new 0 0 32 32">
    <path style="text-indent:0;text-align:start;line-height:normal;text-transform:none;block-progression:tb;-inkscape-font-specification:Bitstream Vera Sans" d="M 22 3 C 18.428534 3 15.468378 5.7190895 15.0625 9.1875 C 14.003235 8.4283752 12.75 8 11.5 8 C 10 8 8.5 8.5875 7.5 9.6875 L 4.6875 12.5 C 2.4875 14.7 2.4875 18.29375 4.6875 20.59375 L 5.25 21.15625 L 4.28125 22.09375 L 4.1875 22.1875 C 2.6206986 23.754301 2.6158087 26.322123 4.21875 27.8125 C 5.7827298 29.355797 8.3263695 29.394915 9.8125 27.8125 C 9.822927 27.8014 9.833428 27.79251 9.84375 27.78125 L 12.875 24.75 C 12.949401 24.697697 13.024386 24.651553 13.09375 24.59375 L 13.1875 24.59375 C 14.3875 24.59375 15.49375 23.99375 16.09375 23.09375 C 16.99375 22.89375 17.8125 22.39375 18.3125 21.59375 C 19.9125 21.29375 21.09375 19.8875 21.09375 18.1875 C 21.09375 17.719962 20.979402 17.280628 20.78125 16.84375 C 21.140741 16.910492 21.483732 17 21.90625 17 C 25.751705 17 28.90625 13.845455 28.90625 10 C 28.90625 8.8666667 28.677631 7.7654594 28.0625 6.78125 L 27.375 5.71875 L 26.5 6.59375 L 22.71875 10.375 L 21.375 8.9375 L 25.09375 5.21875 L 26.15625 4.15625 L 24.78125 3.59375 C 23.975601 3.2484719 23.048148 3 22 3 z M 22 5 C 22.142261 5 22.239145 5.082479 22.375 5.09375 L 19.28125 8.1875 L 18.625 8.875 L 19.28125 9.59375 L 21.96875 12.46875 L 22.6875 13.25 L 23.40625 12.5 L 26.6875 9.21875 C 26.73356 9.4919365 26.90625 9.6845231 26.90625 10 C 26.90625 12.754545 24.660795 15 21.90625 15 C 21.539583 15 21.09375 14.9125 20.59375 14.8125 L 20.0625 14.71875 L 19.6875 15.09375 L 19.5625 15.25 L 16.8125 12.5 L 17.5 11.8125 L 17.21875 11.46875 L 17.15625 11.25 C 17.075272 10.92609 17 10.366667 17 10 C 17 7.2454545 19.245455 5 22 5 z M 11.5 10 C 12.5 10 13.5125 10.3875 14.3125 11.1875 L 14.6875 11.6875 L 13.90625 12.5 L 18.40625 17 C 18.80625 17.2 19 17.6875 19 18.1875 C 19 18.9875 18.3 19.6875 17.5 19.6875 C 17.2 19.6875 16.9875 19.6 16.6875 19.5 L 16.6875 19.6875 C 16.6875 20.4875 15.9875 21.1875 15.1875 21.1875 C 14.8875 21.1875 14.70625 21.1 14.40625 21 L 14.40625 21.1875 C 14.40625 21.9875 13.70625 22.6875 12.90625 22.6875 C 12.60625 22.6875 12.29375 22.6 12.09375 22.5 C 12.04375 22.65 11.96875 22.784375 11.875 22.90625 C 11.78125 23.028125 11.6875 23.13125 11.5625 23.21875 C 11.3125 23.39375 10.9875 23.5 10.6875 23.5 C 10.1875 23.5 9.8 23.30625 9.5 22.90625 L 5.90625 19.3125 C 4.50625 17.9125 4.50625 15.49375 5.90625 14.09375 L 8.6875 11.3125 C 9.5875 10.4125 10.6 10 11.5 10 z M 6.65625 22.5625 L 8.3125 24.1875 C 8.705 24.636071 9.1556187 24.959199 9.65625 25.15625 L 8.40625 26.40625 L 8.375 26.40625 L 8.375 26.4375 C 7.6625854 27.21468 6.4205548 27.233055 5.59375 26.40625 L 5.59375 26.375 L 5.5625 26.375 C 4.7853205 25.662585 4.7669452 24.420555 5.59375 23.59375 L 6.65625 22.5625 z" color="#000" overflow="visible" enable-background="accumulate" font-family="Bitstream Vera Sans"/>
</svg>