<svg xmlns="http://www.w3.org/2000/svg" viewBox="0 0 32 32" enable-background="new 0 0 32 32">
    <path d="M 0 7 L 0 8 L 0 24 L 0 25 L 1 25 L 31 25 L 32 25 L 32 24 L 32 8 L 32 7 L 31 7 L 1 7 L 0 7 z M 2 9 L 30 9 L 30 23 L 2 23 L 2 9 z M 3 12 L 5 16 L 3 20 L 5 20 L 6 18 L 7 20 L 9 20 L 7 16 L 9 12 L 7 12 L 6 14 L 5 12 L 3 12 z M 12.15625 12 L 11.9375 12.6875 L 10.03125 18.6875 L 10 18.84375 L 10 19 L 10 20 L 12 20 L 12 19.21875 L 12.0625 19 L 13.9375 19 L 14 19.21875 L 14 20 L 16 20 L 16 19 L 16 18.84375 L 15.96875 18.6875 L 14.0625 12.6875 L 13.84375 12 L 13.09375 12 L 12.90625 12 L 12.15625 12 z M 17 12 L 17 13 L 17 20 L 19 20 L 19 15.34375 L 19.1875 15.59375 L 20 16.65625 L 20.8125 15.59375 L 21 15.34375 L 21 20 L 23 20 L 23 13 L 23 12 L 22 12 L 21.5 12 L 21 12 L 20.6875 12.40625 L 20 13.3125 L 19.3125 12.40625 L 19 12 L 18.5 12 L 18 12 L 17 12 z M 25 12 L 25 19 L 25 20 L 26 20 L 29 20 L 29 18 L 27 18 L 27 12 L 25 12 z M 13 16 L 13.3125 17 L 12.6875 17 L 13 16 z"/>
</svg>