<svg xmlns="http://www.w3.org/2000/svg" viewBox="0 0 32 32" enable-background="new 0 0 32 32">
    <path d="M 0 7 L 0 8 L 0 24 L 0 25 L 1 25 L 31 25 L 32 25 L 32 24 L 32 8 L 32 7 L 31 7 L 1 7 L 0 7 z M 2 9 L 30 9 L 30 23 L 2 23 L 2 9 z M 7 12 L 9 16 L 7 20 L 9 20 L 10 18 L 11 20 L 13 20 L 11 16 L 13 12 L 11 12 L 10 14 L 9 12 L 7 12 z M 14 12 L 14 13 L 14 20 L 16 20 L 16 15.34375 L 16.1875 15.59375 L 17 16.65625 L 17.8125 15.59375 L 18 15.34375 L 18 20 L 20 20 L 20 13 L 20 12 L 19 12 L 18.5 12 L 18 12 L 17.6875 12.40625 L 17 13.3125 L 16.3125 12.40625 L 16 12 L 15.5 12 L 15 12 L 14 12 z M 22 12 L 22 19 L 22 20 L 23 20 L 26 20 L 26 18 L 24 18 L 24 12 L 22 12 z"/>
</svg>