<svg xmlns="http://www.w3.org/2000/svg" viewBox="0 0 32 32" enable-background="new 0 0 32 32">
    <path style="text-indent:0;text-align:start;line-height:normal;text-transform:none;block-progression:tb;-inkscape-font-specification:Bitstream Vera Sans" d="M 6 3 L 6 4 L 6 10 L 8 10 L 8 5 L 24 5 L 24 10 L 26 10 L 26 4 L 26 3 L 25 3 L 7 3 L 6 3 z M 9 12 L 9 14 L 11.5625 14 L 9.15625 18 L 9 18.21875 L 9 18.5 L 9 19 L 9 20 L 10 20 L 14 20 L 14 18 L 11.4375 18 L 13.84375 14 L 14 13.78125 L 14 13.5 L 14 13 L 14 12 L 13 12 L 9 12 z M 16 12 L 16 20 L 18 20 L 18 12 L 16 12 z M 20 12 L 20 13 L 20 20 L 22 20 L 22 17 L 22.5 17 C 23.883333 17 25 15.883333 25 14.5 C 25 13.116667 23.883333 12 22.5 12 L 21 12 L 20 12 z M 22 14 L 22.5 14 C 22.716667 14 23 14.283333 23 14.5 C 23 14.716667 22.716667 15 22.5 15 L 22 15 L 22 14 z M 6 22 L 6 28 L 6 29 L 7 29 L 25 29 L 26 29 L 26 28 L 26 22 L 24 22 L 24 27 L 8 27 L 8 22 L 6 22 z" color="#000" overflow="visible" enable-background="accumulate" font-family="Bitstream Vera Sans"/>
</svg>